<svg version="1.1" id="Layer_1" xmlns="http://www.w3.org/2000/svg" xmlns:xlink="http://www.w3.org/1999/xlink" x="0px" y="0px"
	 width="100%" viewBox="0 0 1024 544" enable-background="new 0 0 1024 544" xml:space="preserve">
<path fill="#000000" opacity="1.000000" stroke="none" 
	d="
M511.210999,95.194626 
	C515.179382,92.596275 517.858093,88.670235 522.905029,87.276253 
	C522.359985,101.930672 517.034973,113.740555 506.181305,123.732193 
	C540.809021,123.356537 575.148865,130.754974 609.795898,123.238197 
	C610.422791,124.485481 608.848267,125.408104 607.883972,126.288971 
	C597.884949,135.422699 586.752686,141.521042 572.578064,141.462631 
	C534.748962,141.306747 497.009644,138.891098 459.228546,137.548965 
	C449.905121,137.217743 440.564728,137.389114 431.235229,137.187668 
	C428.055695,137.119019 427.101624,138.618347 427.347900,141.470322 
	C428.729462,157.468857 427.131714,173.405350 426.313049,189.356323 
	C425.050201,213.962540 423.722443,238.565460 422.482971,263.172821 
	C422.302368,266.758087 422.457916,270.360291 422.457916,274.526306 
	C431.484924,272.936249 439.766846,271.258698 448.305328,271.654602 
	C478.583374,273.058441 508.865570,274.395813 539.155029,275.521637 
	C559.466614,276.276581 579.794861,276.577271 600.111328,277.216858 
	C603.606262,277.326874 603.901428,275.471710 603.773804,272.844543 
	C602.965759,256.213928 602.433655,239.565353 601.329102,222.954712 
	C599.615662,197.187820 598.080261,171.427475 598.680359,145.585632 
	C598.728638,143.505219 599.160339,141.586548 600.526245,140.019135 
	C604.592041,135.353439 609.148376,131.213577 614.219299,127.660027 
	C615.023071,127.096764 615.963562,126.627388 617.287659,127.407555 
	C618.132141,131.882553 616.509216,136.383163 616.337952,140.954010 
	C615.608521,160.423981 615.041260,179.901657 614.112671,199.362106 
	C612.970154,223.307739 611.487366,247.236984 610.240112,271.177917 
	C609.903931,277.631012 610.050842,277.656372 616.294250,277.745026 
	C621.111450,277.813446 625.940002,278.036224 630.742432,277.786255 
	C633.272278,277.654572 633.554016,279.259338 633.862366,280.789093 
	C634.815796,285.519379 634.512207,290.346405 631.716736,294.267944 
	C626.964539,300.934326 620.931946,306.387817 613.725708,310.823578 
	C612.420776,309.189606 612.143738,306.987579 609.376221,307.386658 
	C599.611938,308.794525 589.744751,308.068726 579.926331,308.439331 
	C577.972473,308.513123 575.950317,308.583740 574.069824,309.899597 
	C591.427917,356.678009 602.491028,405.539703 621.609558,452.044861 
	C626.394592,449.319733 628.452393,444.088257 632.874939,441.472809 
	C639.189331,451.123535 629.502319,465.825989 616.634033,473.035828 
	C615.887390,472.702667 615.689819,471.997284 615.974060,471.402954 
	C619.440613,464.155518 616.898987,457.558350 614.151855,450.790649 
	C597.665039,410.173859 578.612671,370.707062 560.445007,330.846008 
	C557.092346,323.489990 553.650940,316.682343 562.698730,310.296814 
	C562.356506,310.005615 562.014343,309.714386 561.672119,309.423157 
	C555.305420,309.423157 548.936646,309.323700 542.572571,309.453888 
	C537.246948,309.562805 531.928589,310.078430 526.603577,310.146301 
	C523.451172,310.186523 522.139160,311.301971 522.167053,314.566864 
	C522.403992,342.259583 517.945557,369.635742 516.525146,397.216339 
	C516.142517,404.646851 516.467224,412.113800 516.467224,419.935486 
	C521.254089,418.837555 523.604980,413.713257 528.477783,413.262177 
	C528.371643,422.722534 518.826599,433.611237 505.392456,439.840210 
	C505.224548,439.592010 504.851776,439.203613 504.914703,439.110870 
	C512.742615,427.574005 509.820984,414.645844 509.294067,402.207001 
	C508.561859,384.920319 506.960693,367.669891 505.691620,350.406860 
	C505.228058,344.101776 504.860809,337.778748 504.077087,331.510468 
	C502.795929,321.263580 503.102234,319.767059 509.799072,311.820374 
	C509.375488,310.302948 508.076172,310.399353 506.977753,310.493866 
	C495.170532,311.509674 483.330444,311.322144 471.507416,311.261993 
	C467.275024,311.240479 465.419312,312.716858 464.060120,316.682831 
	C449.538483,359.054138 434.666840,401.306091 420.286804,443.724884 
	C417.256378,452.664215 412.675537,459.911407 404.846527,465.062134 
	C400.956909,467.621216 398.071869,471.879456 392.048126,472.841339 
	C411.553070,419.676788 427.339569,366.151520 446.144531,313.386719 
	C441.636749,311.569122 437.772858,312.155212 434.097412,312.494415 
	C423.440186,313.478058 412.776764,312.851074 402.121063,313.099335 
	C399.029144,313.171387 396.642639,312.094391 394.890564,309.506989 
	C390.182953,302.554901 390.655212,294.104492 396.401062,287.921112 
	C401.040985,282.927856 405.576508,277.697906 412.484375,275.650879 
	C414.760406,274.976410 414.989014,273.241699 414.896179,271.305084 
	C414.075043,254.173813 413.275146,237.041473 412.413818,219.912201 
	C411.903778,209.769760 411.307709,199.631546 410.726440,189.492798 
	C409.869171,174.539520 409.028717,159.585052 408.092255,144.636688 
	C407.878693,141.228470 409.022522,138.443405 411.188141,135.966782 
	C414.612366,132.050797 418.770294,128.962509 422.844727,125.791702 
	C423.584747,125.215813 425.112305,124.445908 425.438995,124.729614 
	C429.118500,127.925323 432.732117,125.222176 436.301453,124.720665 
	C440.762451,124.093864 445.202820,123.617134 449.721344,123.646484 
	C463.053619,123.733093 476.387573,123.784401 489.719299,123.670059 
	C499.365295,123.587326 498.493164,125.836235 501.205200,114.349380 
	C501.587219,112.731346 502.180634,111.079865 502.135468,109.458923 
	C501.948944,102.763031 505.825439,98.733246 511.210999,95.194626 
M576.471741,284.196075 
	C540.533264,285.607452 504.582733,286.773773 468.661652,288.539032 
	C451.994141,289.358093 435.348572,288.771423 418.698212,289.145752 
	C415.823486,289.210388 412.710327,288.596252 410.104950,290.826355 
	C410.739166,294.266632 412.558197,295.795074 415.959381,295.847900 
	C429.281921,296.054688 442.608856,296.731750 455.920898,296.493683 
	C461.425201,296.395233 466.929779,292.257721 472.336151,296.928497 
	C472.533173,297.098694 472.984833,296.975189 473.317871,296.986603 
	C492.290070,297.636322 511.263367,298.256317 530.234131,298.945221 
	C543.711487,299.434631 557.183472,300.075836 570.661499,300.541199 
	C584.143921,301.006714 597.632324,301.298462 611.114929,301.758270 
	C614.139648,301.861420 616.156738,301.076141 615.674866,297.646118 
	C614.980774,292.704895 617.396179,289.428864 621.016785,286.593903 
	C622.354187,285.546631 624.014160,284.644104 624.830750,282.188843 
	C608.675903,282.865784 593.064758,283.519958 576.471741,284.196075 
z"/>
</svg>