<?xml version="1.0" encoding="UTF-8"?>
<svg id="Layer_1" data-name="Layer 1" xmlns="http://www.w3.org/2000/svg" viewBox="0 0 243.17 385.76">
  <path d="M119.52,7.92c3.97-2.6,6.65-6.52,11.69-7.92-.55,14.65-5.87,26.46-16.72,36.46,34.63-.38,68.97,7.02,103.61-.49.63,1.25-.95,2.17-1.91,3.05-10,9.13-21.13,15.23-35.31,15.17-37.83-.16-75.57-2.57-113.35-3.91-9.32-.33-18.66-.16-27.99-.36-3.18-.07-4.13,1.43-3.89,4.28,1.38,16-.22,31.94-1.03,47.89-1.26,24.61-2.59,49.21-3.83,73.82-.18,3.59-.03,7.19-.03,11.35,9.03-1.59,17.31-3.27,25.85-2.87,30.28,1.4,60.56,2.74,90.85,3.87,20.31.75,40.64,1.06,60.96,1.7,3.49.11,3.79-1.75,3.66-4.37-.81-16.63-1.34-33.28-2.44-49.89-1.71-25.77-3.25-51.53-2.65-77.37.05-2.08.48-4,1.85-5.57,4.07-4.67,8.62-8.81,13.69-12.36.8-.56,1.74-1.03,3.07-.25.84,4.47-.78,8.98-.95,13.55-.73,19.47-1.3,38.95-2.23,58.41-1.14,23.95-2.63,47.87-3.87,71.82-.34,6.45-.19,6.48,6.05,6.57,4.82.07,9.65.29,14.45.04,2.53-.13,2.81,1.47,3.12,3,.95,4.73.65,9.56-2.15,13.48-4.75,6.67-10.78,12.12-17.99,16.56-1.3-1.63-1.58-3.84-4.35-3.44-9.76,1.41-19.63.68-29.45,1.05-1.95.07-3.98.14-5.86,1.46,17.36,46.78,28.42,95.64,47.54,142.15,4.79-2.73,6.84-7.96,11.27-10.57,6.31,9.65-3.37,24.35-16.24,31.56-.75-.33-.94-1.04-.66-1.63,3.47-7.25.92-13.84-1.82-20.61-16.49-40.62-35.54-80.08-53.71-119.94-3.35-7.36-6.79-14.16,2.25-20.55-.34-.29-.68-.58-1.03-.87-6.37,0-12.74-.1-19.1.03-5.33.11-10.64.62-15.97.69-3.15.04-4.46,1.16-4.44,4.42.24,27.69-4.22,55.07-5.64,82.65-.38,7.43-.06,14.9-.06,22.72,4.79-1.1,7.14-6.22,12.01-6.67-.11,9.46-9.65,20.35-23.09,26.58-.17-.25-.54-.64-.48-.73,7.83-11.54,4.91-24.47,4.38-36.9-.73-17.29-2.33-34.54-3.6-51.8-.46-6.31-.83-12.63-1.61-18.9-1.28-10.25-.97-11.74,5.72-19.69-.42-1.52-1.72-1.42-2.82-1.33-11.81,1.02-23.65.83-35.47.77-4.23-.02-6.09,1.45-7.45,5.42-14.52,42.37-29.39,84.62-43.77,127.04-3.03,8.94-7.61,16.19-15.44,21.34-3.89,2.56-6.77,6.82-12.8,7.78,19.5-53.16,35.29-106.69,54.1-159.45-4.51-1.82-8.37-1.23-12.05-.89-10.66.98-21.32.36-31.98.6-3.09.07-5.48-1-7.23-3.59-4.71-6.95-4.24-15.4,1.51-21.59,4.64-4.99,9.18-10.22,16.08-12.27,2.28-.67,2.5-2.41,2.41-4.35-.82-17.13-1.62-34.26-2.48-51.39-.51-10.14-1.11-20.28-1.69-30.42-.86-14.95-1.7-29.91-2.63-44.86-.21-3.41.93-6.19,3.1-8.67,3.42-3.92,7.58-7,11.66-10.18.74-.58,2.27-1.35,2.59-1.06,3.68,3.2,7.29.49,10.86,0,4.46-.63,8.9-1.1,13.42-1.07,13.33.09,26.67.14,40,.02,9.65-.08,8.77,2.17,11.49-9.32.38-1.62.98-3.27.93-4.89-.19-6.7,3.69-10.73,9.08-14.26M184.78,196.92c-35.94,1.41-71.89,2.58-107.81,4.34-16.67.82-33.31.23-49.96.61-2.87.06-5.99-.55-8.59,1.68.63,3.44,2.45,4.97,5.85,5.02,13.32.21,26.65.88,39.96.65,5.5-.1,11.01-4.24,16.42.43.2.17.65.05.98.06,18.97.65,37.95,1.27,56.92,1.96,13.48.49,26.95,1.13,40.43,1.6,13.48.47,26.97.76,40.45,1.22,3.02.1,5.04-.68,4.56-4.11-.69-4.94,1.72-8.22,5.34-11.05,1.34-1.05,3-1.95,3.81-4.41-16.15.68-31.77,1.33-48.36,2.01Z"/>
</svg>