<?xml version="1.0" encoding="UTF-8"?>
<svg id="Layer_1" data-name="Layer 1" xmlns="http://www.w3.org/2000/svg" viewBox="0 0 373.27 389.48">
  <path d="M323.04,74.23c-4.12,5.15-8.23,10.3-12.59,15.76,3.16.21,4.42-2.94,8.6-2.8-5.07,5.2-9.14,9.68-13.52,13.82-16.23,15.34-31.89,31.26-47.58,47.15-1.64,1.66-3.02,3.18-1.09,5.51,4.91,5.92,9.93,11.76,16.76,15.52,7.05,3.87,8.36,3.58,14.64-1.68,2.38.69,3.59,2.8,5.03,4.55,17.26,21.09,26.33,45.56,30.15,72.32,2.38,16.73-.07,33.24-1.63,49.76-1.81,19.15,1.6,37.12,10.18,54.16,2.76,5.49,6.28,10.59,9.46,15.87,1.37,2.29,3.19,4.48.73,7.57,11.47,3.59,22.52,6.67,31.09,14.72-1.56,2.83-3.78,3.18-5.91,3-12.8-1.06-25.5-2.52-36.48-10.18-4.06-2.83-7.28-6.34-9.13-10.97-.72-1.81-1.41-3.77,1.17-3.61-15.1-13.05-27.95-28.76-42.21-43.06-14.35-14.39-28.13-29.33-43.1-43.13-16.68-15.37-31.74-32.33-47.01-49.08-1.11-1.21-2.24-2.4-3.96-4.24-17.77,18.09-34.06,37.18-52.97,54.99,9.79,8.64,19.17,16.91,28.38,25.04-.88,1.74-1.7,1.42-2.44,1.07-14.08-6.66-27.04-15.08-39.06-24.96-3.93-3.23-6.79-6.89-5.59-12.45.66-3.05-1.47-3.47-3.6-3.19-6.49.86-10.51-2.44-14.25-7.27-4.67-6.06-9.98-11.63-14.99-17.42-1.04-1.21-2.48-2.2-2.73-5.12,5.36,3.93,10.08,7.39,14.79,10.84,6.5,4.76,6.91,4.75,12.21-1.33,20.8-23.88,44.13-45.4,64.49-69.69,11.87-14.16,24.22-27.92,36.95-42.53-5.14-4.01-8.91-9.04-13.17-13.62-1.89-2.03-3.19-4.18-3.88-6.81-4.2-15.91-14.34-26.38-29.02-33.54-24.77-12.08-50.87-17.4-78.22-17.63-11.18-.09-22.22-1.35-33.14-3.9-8.92-2.08-16.8-6.28-24.43-11.09-.95-.6-2.19-1.44-2.42-2.39-1.91-7.82-4.18-15.62-3.65-24.54,3.95,1.95,4.89,5.73,7.6,7.83,18.72,14.53,39.3,23.24,63.56,22.63,15.11-.38,30.29-1.23,45.38,1.3,22.33,3.74,42.16,13.11,60.51,26.03,1.23.86,2.44,1.76,3.75,2.48,6.95,3.77,11.72,8.28,8.7,17.37-1.81,5.44,2.32,9.35,5.55,13.18,6.44,7.64,6.39,7.58,12.79.18,16.9-19.53,33.95-38.92,50.74-58.53,5.2-6.07,11.46-10.68,18.13-14.76,20.03-12.25,39.77-25.04,61.05-35.13,1.61-.76,3.27-1.43,5.02-2.18,1.17,9.06-31.33,76.73-39.18,81.76-1.35-2.18-.56-4.49-.34-7.43,4.99-18.02,12.6-34.27,19.63-52.42-14.24,6.45-27.08,12.24-39.88,18.13-.98.45-1.72,1.55-2.43,2.46-21.21,27.03-44.89,51.89-68.08,77.18-20.6,22.47-41.11,45.03-61.88,67.34-19.74,21.21-39.06,42.86-61.15,61.77-1.25,1.07-3.2,1.89-2.98,4.66,9.52.58,19,1.85,25.92-7.12,1.73-2.24,3.86-4.15,5.65-6.34,48.34-59.23,102.81-112.72,156.39-167.06.89-.9,1.65-2.55,3.97-1.58-3.53,5.6-8.1,9.97-12.19,14.72-30.13,34.95-60.76,69.45-92.84,102.66-19.56,20.25-39.62,40.01-58.26,61.14-5.78,6.55-6.59,14.28-6.51,22.36.02,1.56.34,3.36,2.25,4.14,1.92-.38,2.43-2.15,3.33-3.46,19.62-28.26,41.23-54.85,65.78-79.01,23.15-22.79,46.18-45.71,69.11-68.74,16.34-16.41,32.14-33.35,49.19-49.05,1.31-1.21,2.28-3.73,4.85-1.9M310.17,327.3c-.41-5.14-1.44-10.32-1.1-15.41.77-11.79,1.57-23.54.68-35.36-1.34-17.8-3.88-35.19-10.44-52.09-7.37-18.96-19.73-32.09-38.65-39.17-3.51-1.31-6.39-3.44-9.13-5.94-4.15-3.79-7.49-8.22-10.3-13.81-18.02,19.56-35.35,38.37-52.42,56.9.49,1.81,1.53,2.1,2.34,2.64,10.39,6.99,20.34,14.5,28.9,23.72,28.24,30.38,56.5,60.74,84.76,91.1,2.74,2.94,5.48,5.9,9.4,8.65-1.71-7.26-3.33-13.71-4.03-21.24Z"/>
  <path d="M95.73,261.51c14.56,14.92,31.1,27.26,44.82,42.5,6.05,6.71,11.17,11.71,20.42,4.8,3.72-2.78,4.42-1.84,7.93-1.21-1.44,10.98-14.71,18.5-27.49,15.29.49-3.01-1.14-4.78-3.65-6.53-9.43-6.58-17.65-14.66-26.76-22.45-3.56,3.94-6.73,7.98-10.44,11.44-13.52,12.6-27.22,25-40.85,37.48-2.09,1.91-4.08,3.94-6.31,5.68-5.31,4.16-8.62,9.26-9.96,16.07-1.95,9.88-7.44,16.82-18.08,18.82-6.94,1.3-13.56,4.31-20.7,4.34-.64-9.04-.58-17.61.02-26.15.42-5.91,5.67-8.19,9.66-10.92,3.63-2.48,8.09-3.9,12.34-5.3,4.34-1.43,7.45-4.08,10.24-7.56,13.98-17.39,27.28-35.32,42.03-52.08,2.51-2.86,5.31-5.62,8.43-7.75,3.84-2.62,3.15-4.47.28-7.3-9.62-9.45-18.81-19.36-29.05-28.15-3.92-3.37-3.53-6.08-.62-9.6,5.87-7.08,13.8-8.26,22.99-8.74-2.34,5.12-7.33,6.81-9.46,11.27,7.95,8.55,15.97,17.17,24.22,26.05M30.35,355.12c-2.83,2.11-5.99,3.58-9.26,4.86-1.52.6-3.53,1.13-3.56,3.09-.07,4.78-2.01,9.22-2.77,14.16,3.94-.63,7.36-1.41,10.82-1.65,3.83-.27,5.46-2.14,6.05-5.8.8-4.98,2.16-10.18,5.97-13.51,9.62-8.4,16.62-19.05,25.29-28.23,13.18-13.95,24.72-29.68,42.24-39.33-2.41-3.04-4.79-6.13-8.68-8.18-2.97,4.04-5.68,8.01-8.68,11.75-14.09,17.61-30.15,33.36-46.32,49.01-1.79,1.73-4.32,3.16-4.8,5.61-.71,3.67-2.99,5.8-6.31,8.22Z"/>
  <path d="M36.68,62.53c-3.39-4.51-8.19-7.54-9.64-13.12,47.43,41.01,88.24,88.16,129.23,136.42-3.74.63-4.67-1.49-6.05-2.66-25.96-22.16-47.7-48.33-70.37-73.64-14.11-15.76-28.62-31.17-43.18-47Z"/>
  <path d="M6.69,28.3C4.34,21.68,3.39,15.04.47,9.01c-1.57-3.25,1.18-4.86,3.01-6.62,2.04-1.96,3.63-.13,5.2,1.02,3.61,2.67,5.77,6.1,6.71,10.63,2.05,9.9,4.54,19.7,6.79,29.56.27,1.2,1.11,2.49-.45,4.26-6.39-5.35-11.82-11.31-15.02-19.57Z"/>
</svg>