<?xml version="1.0" encoding="UTF-8"?>
<svg id="Layer_1" data-name="Layer 1" xmlns="http://www.w3.org/2000/svg" viewBox="0 0 385.39 288.87">
  <path d="M109.3,22.4c16.47,6.2,28.08,16.67,32.49,34.05.89,3.53.85,7.09.9,10.61,4.29,2.34,6.57,9.51,3.86,13.53-1.55,2.29-1.33,4.19-.7,6.45,2.35,8.46,4.53,16.95,5.5,25.71.46,4.16.16,8.32.24,12.47.03,1.69-.83,1.93-2.42,1.56,1.01,5.61.94,11.1.47,16.64-.54,6.39-.81,6.67-6.37,3.48-1.29,2.01-1.23,4.96-3.15,6.33-2.66,1.89-4.13-1.6-6.76-2.25-3.25,4.16-8.31,4.94-13.33,5.74-1.42.22-2.48.63-2.62,2.2-.17,1.9,1.46,1.89,2.58,2.14,4.26.95,8.79,1.21,11.17,5.88.33.65,1.85.77,2.84,1.01,4.83,1.18,9.11,3.39,12.63,6.89,2.21,2.21,4.5,4.5,3.2,8.16-.31.88.23,1.54.78,2.16,5.51,6.29,7.61,13.97,8.4,21.98.51,5.15.09,10.4.08,15.6,0,.69-.12,1.37-.96,2-1.98-1.88-1.64-4.44-2.02-6.64-1.68-9.73-4.03-19.19-8.76-27.99-1.34-2.5-2.58-3.14-5.08-1.72-3.35,1.9-7.11,2.7-10.79,3.68-4.8,1.28-5.88,3.85-3.48,8.1,4.21,7.46,9.08,14.5,14.02,21.49.63.89,1.74,1.6,1.27,3.3-2.12.04-3.51-1.39-4.94-2.6-5.97-5-10.24-11.31-13.46-18.3-1.24-2.69-3.18-3.09-5.71-3.94-3.62-1.22-4.13,1.15-5.48,2.97-4.11,5.55-9.26,10.02-14.89,13.91-5.82,4.02-12.21,7.04-18.7,9.82-1.32.57-2.7,1.24-4.2.48.02-1.55,1.25-1.76,2.06-2.25,12.5-7.52,23.15-17.23,33-27.9.95-1.03,1.15-1.83.44-3.02-2.23-3.76-2.93-7.77-1.51-11.98.76-2.25-1.02-2.51-2.27-3.14-15.76-7.9-32.14-14.13-49.36-18.06-1.01-.23-2.05-.4-3.03-.73-2.35-.81-3.73.05-5.63,1.75-4.49,4.01-8.05,9.03-13.62,11.93-13.12,6.85-19.7,18.67-23.79,32.29-1.82,6.08-3.81,12.12-5.8,18.16-.37,1.11-.54,2.84-2.28,2.55-1.7-.28-1.51-1.93-1.36-3.13,1.85-15.02,4.76-29.77,13.98-42.26,4.9-6.64,12.45-9.84,19.87-12.83,2.73-1.1,4.39-2.59,5.73-5.36,3.4-7.03,7.82-9.53,16.01-8.24q7.56,1.19,7.64-6.39c.01-1.35,0-2.71,0-4.9-2.12,2.5-3.63,4.49-5.35,6.26-4.04,4.18-5.52,3.97-8.2-.93-.21-.38-.56-.69-.82-1q-8.44,3.98-9.53-5.05c-1.33-.29-1.83,1.34-3.66,1.31-3.38-9.12-.61-18.08,1.39-27.12-1.67-.73-3.24,1.48-4.97.15-.8-1.27.17-2.37.57-3.51,2.4-6.99,4.82-13.98,7.29-20.95.73-2.07.92-3.89-.48-5.85-1.54-2.15-1.47-4.8-1.51-7.36-.03-2.26,1.48-3.18,2.91-3.61-1.14-19.53,6.52-34.55,21.61-46.03,5.41-4.11,11.26-7.46,17.95-8.66.39.49.78.98,1.17,1.46-22.45,9.4-33.42,26.76-36.38,50.51,6.97-2.22,13.39-4.02,19.96-5.22,12.1-2.2,24.28-3.2,36.58-2.72,3.81.15,3.98-.17,3-3.94-3.48-13.37-8.83-25.78-18.18-36.22-.82-.91-1.18-2.22-1.93-3.21-.66-.87-2.28-.67-2.64-2.59,3.55-1.61,7.38-2.24,11.24-1.66,3.19.48,6.65.45,9.11,3.42.71.85,2.58.74,4.17,1.14M81.49,91.77c-.56,5.69.81,11.52-.8,16.57-1.34,1.46-2.75-.04-3.92,1.59.45,5.92.88,12.22,1.97,18.47.83,4.8.73,4.81-3.7,5.38-2.48,6.14,2,12.59-.55,18.63-1.76.24-2.29-1.65-3.79-1.36-.53,2.06-1.03,4.03-1.57,6.14,1.31.49,2.37.92,3.45,1.28,13.36,4.45,25.9,10.54,37.37,18.72,1.36.97,2.47,2.13,4.21.74,1.86-1.49.69-3.48-.08-4.29-3.61-3.78-2.51-8.3-2.07-12.49.35-3.36-.71-3.71-3.61-3.92-10.82-.79-20.01-5.27-27.41-13.24-.96-1.03-2.59-2.3-1.32-3.84,1.36-1.66,2.69-.04,3.87.75,4.71,3.15,9.39,6.35,14.09,9.51,1.25.84,2.51,1.72,4.1,1.72,5.77,0,11.53.13,17.32-.35,6.22-.52,11.99-3.28,18.26-3.25,1.14-1.68.64-3.66,1.24-5.41,1.02-2.98,2.64-3.5,5.11-1.52,1.1.88,1.66,2.43,3.26,2.86.45-1.6.2-2.98-.05-4.33-.88-4.88-1.84-9.75-2.73-14.64-.29-1.59-.61-3.3.83-4.53,1.49-1.27,2.35,1.01,4.09.81-1.22-8.59-3.7-16.77-6.48-25,2.53,8.62,1.02,16.88-1.54,25.12-2.5,8.05-4.74,16.19-7.08,24.26-1.02-.27-1.14-.72-1.12-1.19.54-10.41,1.68-20.71,5.2-30.63,1.29-3.66,3.04-7.39,1.3-11.41-1.8-4.17-1.27-8.37-.39-12.6.37-1.8.85-3.59,1.15-5.41.17-1.03.16-2.29-1.12-2.6-3.86-.94-7.75-1.79-12.02-1.82.58,2.73.28,5.19,1.41,7.11,3.39,1.03,6.8-1.91,9.94.5-.7,1.7-1.98,1.78-2.99,2.27-.71.35-1.65.59-1.4,1.67.45,1.95.12,3.55-2.02,4.09-2.2.55-2.65-1.59-3.97-3.32,0,2.1.04,3.59-.01,5.09-.03.96-.3,1.93-1.42,2.09-1.35.19-1.83-.87-2.05-1.9-1.18-5.67-1.97-11.4-1.62-17.21.11-1.8.8-2.92,3.16-3.21,5.41-.67,10.76-.58,16.33.09v-6.84c-5.08-.07-9.68-2.31-14.62-2.66-3.45-.24-4.87-2.01-5.68-5.29-3.34-13.61-9.06-26.18-17.32-37.54-2.63-3.61-6.89-4.53-11.31-2.24,6.1,5.46,10.41,12.1,13.44,19.58,2.56,6.34,4.88,12.74,4.54,19.76-.13,2.63-1.11,4.43-3.96,4.79-2.86.36-5.71.94-8.58,1.15-17.35,1.28-34.28,4.87-51.1,9.13-1.09.28-2.17.64-1.95,1.95.31,1.87-.18,3.91,1.07,5.9,11.55-3.24,23.27-5.14,35.07-6.52,9.29-1.09,18.59-2.29,27.99-1.31,3,.31,4.39,1.75,5.02,4.69,1.3,6.01,1.45,12.06.98,17.84,3.91,1.93,7.92.76,11.82,2.06-1.5,2.63.05,4.72.5,6.89.63,3.03.08,5.46-2.34,7.45-2.44,2-4.98,2.69-8.01,1.25-1.86-.88-3.9-1.41-5.88-2.04-.88-.28-2.07-.36-1.86-1.57.26-1.51,1.56-1.54,2.75-1.21,1.89.53,3.73,1.23,5.63,1.73,2.21.58,5.74-1.16,6-2.85.44-2.77-1.36-5.7-3.94-6.19-4.24-.8-7.93-2.04-7.65-7.46.03-.66-.33-1.34-.51-2.01-.36-1.4-.32-3.57-2.35-3.15-2.25.46-5.22-1.46-6.75,1.74-.68,1.41-1.84,2.12-3.36,1.89-1.51-.23-2.62-1.25-2.68-2.78-.08-1.99-1.23-2.35-2.83-2.76-1.86-.47-4.09-.55-5.35-2.83,2.14-1.21,4.18-1.35,6.23-1.1,4.01.47,8.01,1.07,12.02,1.57,1.11.14,2.65.72,3.21-.44,1.01-2.1-.16-4.3-.61-6.39-.27-1.25-1.72-.91-2.72-.79-6.42.78-12.84,1.53-19.24,2.43-6.13.86-6.12.94-6.47,7.14,0,.12-.01.23-.04,1M63.49,136.68c2.3-.48,2.92,1.46,3.75,2.81,1.71,2.8,3.21,5.73,4.8,8.61-1.12-5.33-1.84-10.64-1.88-16.01-.02-2.75.1-5.62,3.09-7-.99-6.75-2.65-13.31-1.31-20.06.31-1.54.12-3.52,2.07-4.04,2.32-.62,2.24,1.94,3.92,3.92-2.36-6.99-2.79-13.09-1.13-19.55-1.17,0-1.85-.09-2.5.01-6.16.94-12.29,2.24-18.48,2.78-5.61.49-8.45,2.7-9.41,8.57-.88,5.36-3.73,10.3-6.18,15.5,4.65-.84,6.03.48,5.12,4.68-.92,4.28-2.2,8.49-3.06,12.79-.65,3.25-1.78,6.49-1.42,10.09,2.11-.86,3.21-3.72,5.71-1.93,2.02,1.44.77,4.13,1.96,5.99q5.55-4.92,8.1,3.91c2.72-3.4,6.36-5.95,6.86-11.07M117.9,40.6c2.87,7.21,5.04,14.62,6.05,22.33.21,1.57.9,2.63,2.63,2.61,4.01-.04,8.03-.1,12.08.65-1.57-14.95-15.76-34.6-26.86-37.48,2.2,3.7,4.31,7.42,6.11,11.89M118.18,170.42v7.39c5.75,1.34,9.03,5.14,10.28,10.92,5.28-1.18,9.73-3.49,13.91-6.39,1.06-.73,1.83-1.77.67-2.84-3.26-2.99-6.78-5.65-10.91-7.43-.98,1.92-.63,4.5-2.98,4.26-1.84-.19-1.91-2.36-2.26-3.88-1.2-5.19-4.61-7.9-10.72-8.15.65,1.93,1.26,3.74,2.01,6.13M122.67,184.39c-.46-.66-.86-1.38-1.39-1.98-1.28-1.43-2.81-2.66-4.83-1.87-2.02.79-2.35,2.74-2.25,4.66.22,4.4,2.09,7.98,5.62,10.66,1.07.81,2.29,1.24,3.53.43,1.04-.68,1.44-1.72,1.28-3-.37-2.85-.24-5.79-1.95-8.89Z"/>
  <path d="M302.83,176.2c4.74-.23,9.04-.4,12.82-3.16,1.73,3.55-1.42,4.48-3.25,6.79,5.57,2.98,10.25,6.85,14.13,12.12,3.22-3.26,4.81-7.13,6.67-10.68,8.25-15.84,18.06-30.73,27.64-45.76,2.89-4.54,5.45-9.07,6.64-14.37,1.18-5.3,3.63-10.01,7.42-13.95,2.05-2.13,4.49-3.82,7.53-2.63,2.77,1.08,2.72,3.89,2.92,6.4.24,3.07-.28,5.99-1.82,8.67-6.88,11.99-7.77,25.04-7.02,38.43,1.18,20.91,4.29,41.62,5.28,62.62.97,20.61-6.17,37.27-16.72,53.55-1.09,1.68-2.15,3.4-3.45,4.9-1.42,1.64-.9,3.81-1.8,5.63-2.65-.17-3.35-2.45-3.82-4.1-4.45-15.67-10.48-30.92-12.71-47.18-.27-1.99-.88-4.34,1.61-5.12,2.39-.75,3.5,1.49,4.49,3.16,3.01,5.05,3.43,11.07,6.08,17.24,5.54-9.48,8.18-19.13,10.1-29.04,2.78-14.35.37-28.52-1.44-42.71-1.34-10.55-3.19-21.07-2.01-32.97-12.08,19.18-23,37.87-35.7,55.87,3.07,2.47,3.14,5.59,1.72,9.09,4.22,2.82,8.93,4.88,11.8,9.08,1.51,2.2,4.56,4.89,2.25,7.41-2.32,2.53-5.22-.25-7.51-1.67-2.62-1.62-5-3.64-8.22-6.03-.92,24.3-8.47,45.54-21.44,64.91,2.71-10.37,7.33-20.09,9.72-30.56,2.37-10.36,4.41-20.72,3.07-31.52-3.06,4.9-2.22,10.69-3.27,16-1.1,5.61-2.74,10.99-4.89,16.21-2.21,5.38-4.69,10.68-7.41,15.82-2.59,4.89-4.98,10.01-10.01,13.47,7.63-18.15,14.3-36.45,16.42-56.65-3.56,1.32-6.5,2.42-9.44,3.5-1.48.55-1.83,1.77-1.97,3.17-.64,6.3-3.93,10.89-9.36,13.91-2.37,1.32-2.93,2.9-2.85,5.61.12,4.55,1.61,9.55-2.51,14.23-2.75-5.24-1.96-10.76-4.6-15.54-6.92-.02-13.85,2.24-21.27,1.7.16-5.84,1.41-11.12,3.21-16.27.76-2.18,1.05-4.13-1.79-4.58-15.96-2.51-30.09-10.67-45.59-14.62-8.42-2.14-16.88-3.76-25.59-3.81-2.65-.02-5.38-.33-5.56-3.6-.17-2.97,2.57-3.83,4.81-4.15,8.95-1.27,17.58.94,26.04,3.33,10.29,2.9,19.84,7.75,29.46,12.34,3.31,1.58,6.64,3.11,10.04,4.46q10.67,4.24,17.46-6.06c-8.04-4.73-16.36-8.78-25.01-12.19-10.87-4.28-22.35-6.58-33.4-10.28-3.47-1.16-6.95-2.35-10.03-4.42-8.22-5.54-7.8-12.94,1.08-17.18,7.45-3.55,15.38-5.31,23.6-5.87,2.01-.14,4.75.52,3.87-4.04-21.63,3.68-42.68,8.19-59.19,25.33-2.41-4.97-2.02-9.73,1.16-11.73,8.99-5.63,8.66-14.81,10.11-23.2,3.73-21.64,7.09-43.33,7.73-65.35.08-2.77-.36-5.18-1.7-7.63-5.53-10.12-10.45-20.48-12.12-32.07-.16-1.14-.67-2.26.14-3.35,1.65-.42,2.02.89,2.35,1.93,6.2,19.2,17.37,35.49,29.81,51.06,3.74,4.68,7.28,9.53,10.76,14.41,7.02,9.86,8.99,10.58,19.97,6.71,2.2,2.02,1.64,4.34.03,6.14-2.06,2.31-2.03,4.56-1.42,7.36,3.93,18.08,1.64,35.78-4.07,53.1-1.51,4.59-.95,6.66,3.94,8.3,12.28,4.12,23.06,11.13,33.32,18.91,1.94,1.47,3.56,2.09,5.85.97,2.63-1.3,5.54-.93,8.37-.92,3.97,0,5.47-1.76,4.3-5.71-2.59-8.7-4.1-17.5-2.17-26.57.58-2.74-1.39-3.42-3.29-4.15-9.54-3.64-18.27-8.86-27.01-14.05-4.65-2.75-8.64-6.24-11.53-10.87-.97-1.55-2.26-3.41-.37-4.91,2.08-1.65,3.42.15,4.99,1.56,15.22,13.72,31.73,24.84,53.62,25.77M190.52,148.37c-1.46,6.39-2.93,12.78-4.56,19.9,13.68-4.91,27.21-6.25,40.86-6.82,2.78-.12,3.69-1.56,3.78-4.15.22-6.19-1.13-12.26-1.34-18.39-.19-5.66-2.02-9.69-7.57-11.85-1.56-.61-2.73-2.37-3.92-3.73-8.59-9.86-17.42-19.52-25.05-30.43.95,18.39,1.29,36.58-2.21,55.48M371.41,185.57c.47,3.45,1.03,6.9,1.4,10.37,2.17,20.78-1.01,40.61-12.04,58.52-3.33,5.4-3.08,9.9-.96,15.93,2.01-4.38,3.65-8.15,5.45-11.85,13.05-26.69,16.81-54.28,9.02-83.33-2.64-9.87-5.63-19.82-4.76-30.38.44-5.36,1.49-10.59,2.64-16.15-3.05,1.55-2.74,3.98-2.89,6.29-1.14,16.65-.14,33.21,2.14,50.61M304.01,192.29c2.74,6.58-.54,11.57-4.46,16.29-2.46,2.96-5.2,5.68-8.46,9.2,3.26-.53,4.5-2.2,6.07-3.34,1.37-1.01,2.75-3.24,4.58-1.39,1.61,1.63-.23,3.33-1,4.92-.92,1.9-3.55,2.94-3.28,5.78,6.6-2.14,20.72-13.2,23.69-18.07,1.2-1.98.95-3.96.37-5.76-2.48-7.73-9.22-12.04-14.79-17.07-3.13-2.83-7.72.05-12.82-.6,4.11,3.47,8.07,5.28,10.1,10.05M225.68,177.17c-7.45,1.68-15.35,2.02-22.57,7.24,7.91,5.41,16.31,6.35,25.1,8.48.22-4.75.45-9.02.59-13.29.05-1.48-.57-2.6-3.11-2.43M264.97,246.45c3.89-.85,7.8-1.66,11.68-2.57,4.65-1.09,6.21-3.82,4.24-8.53-4.02.35-6.29,4.93-10.78,4.53,0-4.05,4.07-5.35,5.08-8.55-1.59-1.71-3.79-1.73-5.6-2.74-4.3,6-5.96,12.83-9.95,19.56,2.19-.69,3.41-1.08,5.33-1.71M274.82,223.25c-.46.4-.92.79-1.53,1.33q10.64,1.91,13.24-2.67c-4.41-1.73-5.7-1.62-11.71,1.34M292.12,200.9c.14,1.92-.51,3.91.41,5.83,5.13-5.25,5.4-9.25.92-13.83-1.7,2.18-.99,4.77-1.33,8.01M286.44,238.42c3.54-2.81,5.71-6.28,5.89-11.23-6.64,1.69-6.31,6.5-5.89,11.23M376.17,115.35c-1.08,1.76-2.43,3.41-2.76,5.82,5.14-2.39,5.4-2.86,5.29-9.11-.74.95-1.46,1.85-2.53,3.3Z"/>
  <path d="M331.61,114.71c-.68-3.69-1.22-6.98-2.01-10.2-2.12-8.64-1.12-16.78,4.81-25.11-6.11,1.26-10.95,2.25-15.78,3.27-1.76.37-3.77,1.36-4.63-1.16-.77-2.27,1.04-3.32,2.66-4.2,4.79-2.6,9.95-2.18,14.95-1.54,1.64-1.51.69-2.93.27-4.3-2.32-7.47-4.66-14.94-7-22.4-1.7-5.41-5.54-8.23-10.63-5.8-10.86,5.18-20.52,2.52-30.45-2.24-10.09-4.84-19.12-2.14-27.18,4.92-1.11.97-2.58,2.17-2.77,3.43-1.14,7.54-4.18,14.68-4.68,22.33-.52,7.93-1.55,15.6-8.11,21.26-1.84,1.58-3.72,2.22-5.09.12-6.29-9.7-15.93-15.42-25.16-21.63-10.92-7.34-21.78-14.77-31.46-23.75-1.24-1.15-3.12-2.08-2.63-4.98,5.91,3.59,11.59,7.04,18.04,10.96,4.77-24.5,16.81-42.55,40.98-50.05,13.99-4.34,28.25-4.88,43.88-1.28-4.73,3.15-8.76,2.15-12.51,2.29-16.96.64-32.33,5.69-45.91,15.99-10.75,8.16-17.04,19.36-21.9,31.61-1.4,3.53,1.11,4.44,3.24,5.56,8.76,4.6,16.81,10.14,23.87,17.11,4.03,3.98,7.83,8.13,11.1,14.56,3.21-8.87,8.48-15.89,7.86-24.32-.55-7.44,2.4-13.53,4.89-19.9,1.06-2.7,3.94-4.02,6.45-5.31,14.12-7.28,28.35-8.28,42.38.08,3.85,2.3,6.81,2.54,10.23-.65,3.39-3.16,7.83-3.13,12.78-2.35-5.86-17.59-20.07-25.16-36.04-31.96,3.86-1.8,6.32-.25,8.67.39,16.13,4.39,28.58,13.96,33.74,29.85,3.65,11.22,8.33,22.47,8.9,34.55.34,7.18,1.21,14.51-2.12,21.37-1.49,3.07-1.16,6.12.07,9.18,2.49,6.16,2.37,12.13-.14,18.43-1.44,3.6-1.16,7.84-1.97,11.73-2.5,11.9-6.2,23.47-9.86,35.04-.83,2.64-1.94,5.83-5.76,5.64-1.24-1.32-.88-2.63-.56-3.93,3.73-15.19,6.85-30.56,13.44-44.88,1.09-2.36,1.31-4.79,1.12-7.74Z"/>
  <path d="M173.03,217.56c-8.89,6.76-14.45,15.5-18.54,25.34-4.54,10.92-8.31,22.09-11.19,33.57-.38,1.53-.21,3.4-2.48,4.1-1.91-1.7-1.28-4.03-1.04-5.98,1.79-14.71,4.17-29.3,10.54-42.88,2.55-5.44,5.61-10.65,10.01-14.79,2.06-1.94,2.33-3.63,1.47-6.13-1.88-5.48-1.05-10.86,1.32-16,.87-1.89,1.66-4.1,4.99-4.32,1.45,6.31-1.8,13.02.78,19.07,2.24.85,3.9-.36,5.68-.54,1.5-.15,3.1-.71,4.06.89,1.1,1.86-.27,3.15-1.46,4.3-1.19,1.15-2.55,2.13-4.12,3.39Z"/>
  <path d="M83.45,185.5c4.32.88,8.46,1.28,12.12,3.7-18.51-.74-37.06,1.16-55.49-.97,0-.6,0-1.19-.01-1.79,14.24-3.24,28.62-3.02,43.39-.95Z"/>
  <path d="M225.31,90.16c1.46,2.04,2.84,3.73,3.88,5.61,3.01,5.43,2.43,7.62-2.74,11.12-.27,1.86,1.34,2.47,2.34,3.49.84.85,1.67,1.8.71,3.02-.79.99-1.89,1.16-3.15.89-4.37-.95-6.6-6.78-3.57-10.88,1.7-2.3,1.42-3.83.02-5.65-2.81-3.66-5.89-7.09-9.44-10.12-1.77,1.45-.44,3.82-2.22,5.25-2.8-.62-3.35-3.37-3.25-5.28.34-6.75-4.46-9.91-8.58-13.69-2.43-2.23-5.86-3.84-5.95-9.26,12.24,7.32,22.67,15.36,31.95,25.5Z"/>
  <path d="M83.7,203.25c4.66-2.84,9.1-5.55,13.55-8.23.88-.53,1.8-1.03,2.77-1.37,1.08-.38,2.11-.04,2.72.95.56.92.19,1.83-.49,2.53-1.13,1.15-2.23,2.38-3.53,3.31-9.85,7.06-21.01,11.04-32.7,13.75-.99.23-2.07.37-3.82-.8,7.31-3.6,14.58-6.24,21.49-10.14Z"/>
  <path d="M87.03,177.13c1.23.96,2.73,1.31,3.08,2.92-1.27.93-2.49.28-3.62-.06-10.72-3.18-21.52-6-32.58-7.76-1.85-.29-4.64-.4-4.34-2.91.24-2.08,2.93-1.92,4.7-1.85,11.64.45,22.35,4.13,32.77,9.66Z"/>
  <path d="M69.71,35.19c2.04-1.63,3.8-3.32,7.5-3.05-4.84,5.79-10.98,9.46-13.81,16.11-2.67,6.28-4.88,12.75-7.32,19.52-3.08-2.07-2.91-4.61-2.52-6.85,1.32-7.58,4.92-14.07,10.19-19.65,1.89-2,3.84-3.94,5.95-6.08Z"/>
  <path d="M313.42,116.7c-2.85-10.22-6.3-19.99-4.69-30.58,2.69.22,2.99,1.68,3.11,2.93.78,8.71,4.13,16.73,6.52,25.01,1.11,3.85,3.34,7.97-.9,11.47-3.64,3.01-8.62,3.01-13.86-.13-1.22-.73-2.99-.74-3.61-2.67,1.31-2.27,3.2-1.63,5.01-.76,1.87.9,3.64,1.25,5.75.72,3.34-.83,4.62-2.39,2.68-6Z"/>
  <path d="M198.66,266.66c.33-2.42.72-4.38.93-6.36.2-1.83.85-3.4,2.77-3.63,2.07-.24,2.75,1.63,3.34,3.14.85,2.19,1.12,4.52.73,6.86-1.03,6.05-2.09,12.09-3.22,18.12-.29,1.57-.53,3.33-3.23,4.07-2.82-7.15-1.12-14.54-1.32-22.2Z"/>
  <path d="M275.87,75.12c6.24-1.18,11.99-1.27,17.46,1.37,1.69.82,3.19,2.12,2.32,4.33-.73,1.87-2.53,2.27-4.18,1.81-9.52-2.64-19-2.26-28.51-.06-.57.13-1.24-.17-2.88-.44,4.55-4.98,10.19-5.5,15.8-7Z"/>
  <path d="M333.14,266.81c-.06,5.97.5,11.52-.28,16.84-2.03.37-2.39-.71-2.71-1.58-2.32-6.24-3.53-12.75-4.44-19.31-.27-1.93-.46-4.21,2.34-4.68,2.57-.43,3.54,1.38,4.11,3.39.45,1.59.64,3.24.98,5.33Z"/>
  <path d="M296,140.43c7.14-.92,13.5.81,20.36,1.76-6.09,5.27-24.74,4.69-29.32-.69,2.63-2.23,5.73-.41,8.95-1.08Z"/>
  <path d="M282.24,87.82c2.95,1.97,3.01,4.29,1.25,6.55-1.39,1.79-3.38,2.66-5.69,1.45-2.06-1.08-2.77-2.93-2.12-5,.94-3.01,3.19-3.99,6.56-3Z"/>
  <path d="M317.87,91.18c3.78-3.42,6.67-3.27,7.26.12.31,1.77.37,3.69-1.33,5.02-1.32,1.04-2.76,1.12-4.18.32-2.04-1.15-2.44-2.98-1.76-5.46Z"/>
  <path d="M308.2,149.35c2.33.99,3,2.2,1.03,3.7-2.6,1.97-9.05.57-11.29-2.55,3.09-2.26,6.6-.87,10.26-1.14Z"/>
  <path d="M108.66,130.42c-1.67.1-3.14,1.26-4.81-.59,4.71-4.02,10.15-4.98,15.96-4.79,4.11.14,6.24,1.19,7.61,4-6.53-2.22-12.41.51-18.76,1.38Z"/>
  <path d="M93.16,127.21c.06,1.26.68,2.27-.22,3.52-3.71-6.04-7.33-11.94-11.02-17.96,4.79-.02,10.23,5.22,10.72,10.06.14,1.37.31,2.74.52,4.38Z"/>
  <path d="M121.05,146.57c-.3,1.12-.8,1.95-1.7,1.22-1.29-1.05-1.17-2.63-.9-4.13.13-.73.51-1.35,1.36-1.21,1.17.2,1.22,1.2,1.27,2.13.03.57,0,1.14-.04,1.99Z"/>
  <path d="M63.25,103.47c.37-4.62-.09-9.16,3.56-12.7,1.74,5.74-.99,10.98-1.58,16.89-1.98-1.16-1.75-2.63-1.98-4.19Z"/>
  <path d="M59.19,118.87c-.3,2-.56,3.69-.86,5.54-3.03-2.77-2.56-14.28.8-18.31,2.16,4.33-.19,8.44.05,12.77Z"/>
  <path d="M52.35,106.44c-.57.95-.69,2.03-2.38,2.08.13-4,.35-7.88,2.08-11.55.36-.77,1.03-1.3,1.95-.97.93.33,1.02,1.18.89,2-.46,2.84-1.27,5.58-2.53,8.44Z"/>
  <path d="M1.46,230.71c.86-4.32,1.25-8.46,3.66-12.13-.68,18.51,1.29,37.06-.77,55.5-.6,0-1.19.01-1.79.02-3.29-14.22-3.13-28.61-1.1-43.38Z"/>
</svg>