<?xml version="1.0" encoding="UTF-8"?>
<svg id="Layer_1" data-name="Layer 1" xmlns="http://www.w3.org/2000/svg" viewBox="0 0 396.53 410.88">
  <path d="M2.18,227.98c-5.78-31.62.34-61.16,13.39-89.34,9.66-20.85,21.28-40.71,35.28-59.04,3.95-5.16,8.51-9.85,14.28-13.1,2.84-1.61,3.56-4.75,5.24-7.16,8.65-12.42,21.66-19.46,33.58-27.94,21.63-15.39,46.51-21.72,71.91-26.94,13.07-2.69,26.07-5.45,39.54-4.09,27.32,2.75,53.27,10.03,77.27,23.57,10.15,5.73,20.13,11.77,30.09,17.83,13.27,8.08,24.83,17.99,32.43,31.85,7.1,12.96,16.3,24.54,24.12,37.02,2.74,4.37,5.35,8.82,7.13,13.71,1.68,4.59,2.36,9.24,2.5,14.15.37,12.61,2.84,25.12,1.95,37.81-.06.79.02,2,.51,2.34,4.95,3.5,3.85,8.85,4.23,13.66,1.71,21.67,1.25,43.31-3.51,64.55-6.04,27-19.64,50.44-36.2,72.25-6.14,8.08-12.49,16.07-19.46,23.42-14.75,15.58-31.87,27.67-52.73,33.95-13.1,3.95-24.77,11.41-37.81,15.66-28.96,9.45-58.25,11.12-88.16,5.57-35.04-6.5-64.18-24.18-90.72-46.94-6.19-5.31-11.74-11.39-18.02-16.57-14.44-11.89-22.81-27.53-28.72-44.81-7.92-23.17-15.02-46.56-18.11-71.41M186.13,17.1c-6.17,1.35-12.32,2.78-18.51,4.04-27.5,5.62-53.84,14.19-76.35,31.62-12.27,9.5-25.78,17.65-33.86,31.86-9.3,16.35-19.78,32.09-27.13,49.46-8.34,19.71-15.24,40.09-14.21,61.79,1.81,37.92,10.87,74.28,26.62,108.88,3.11,6.84,6.95,13.43,12.49,18.56,13.43,12.43,26.31,25.44,41.18,36.31,45.57,33.28,95.34,43.26,149.84,27.91,18.9-5.32,36.05-14.73,53.1-24.13,11.33-6.25,22.99-12.61,32.25-21.56,17-16.43,28.46-36.76,36.73-58.87,8.42-22.5,10.57-45.91,10.24-69.71-.08-5.81-.13-11.77,2-17.25,3.72-9.59,4.98-19.27,2.67-29.34-2.33-10.14-2.54-20.96-8.89-29.84-11.64-16.27-22-33.35-32.21-50.54-5.39-9.08-11.68-17.75-20.5-23.63-27.07-18.02-54.56-35.27-86.85-42.9-15.83-3.74-31.55-6.93-48.63-2.66Z"/>
  <path d="M158.52,303.82c.19,5.88,4.04,10.82,4.28,16.69.26,6.43-3.39,10.97-7.56,15.18-1.37,1.38-1.94,3.52-4.32,4.43-1.29-3.44.85-5.65,2.51-7.91,2.43-3.3,4.33-6.54,3.1-11.02-1.78-6.47-4.69-8.66-11.35-7.85-1.11.14-1.85.72-2.38,1.6-3.38,5.62-5.66,11.25-1.99,17.81,2.14,3.82,4.58,7.32,7.5,10.54,1.04,1.15,3.03,2.42,1.36,4.15-1.89,1.96-3.31-.12-4.56-1.3-2.18-2.06-4.27-4.22-6.29-6.43-6.09-6.66-7.42-14.09-2.83-22,2.12-3.66,2.16-6.55-.48-9.94-1.81-2.33-2.95-5.21-4.2-7.93-2.03-4.41-3.34-8.82-7.21-12.63-6.34-6.24-1.83-22.63,6.62-26.22.14,5.16-3.49,9.46-2.74,15.27,1.65-7.93,5.73-13.94,9.75-19.91,4.29-6.38,7.63-13.24,10.94-20.13.64-1.34.28-2.56-.06-3.87-1.99-7.64-6.2-13.89-12.13-19.87-1.39,4.18-2.53,7.9-3.86,11.56-2.59,7.11-6.94,13.27-10.94,19.59-5.01,7.9-8.5,16.21-7.88,25.81.05.76-.26,1.55-.59,3.4-3.4-5.06-3.14-9.75-2.77-14.44.1-1.3.85-2.53.37-3.91-3.73-10.63.21-20.04,5.18-29.01,2.32-4.19,2.91-7.88,1-12.21-3.38-7.65-5.31-15.75-7.17-23.87-2.73-11.93,3.75-20.65,16.22-21-.33-23.43,7.66-43.47,26.44-58.03,16.39-12.71,35.33-18.52,56.15-16.72,19.1,1.65,35.72,8.85,48.84,23.31,13.03,14.36,17.77,31.6,17.49,50.35.67.29,1,.59,1.24.53,9.5-2.57,12.94.25,13.79,10.13.61,7.12-.76,13.5-4.09,19.68-2.59,4.8-2.41,10.32-3.68,15.47-.44,1.77.98,3.14,1.87,4.49,4.04,6.23,5.21,12.86,3.15,20.04-.18.63-.53,1.44-.3,1.94,3.41,7.38.36,14.67-.21,21.98-.09,1.16.08,2.41-.28,3.47-3.65,10.64-6.67,21.56-13.37,30.87-3.65,5.06-5.1,11.16-7.98,16.59-.98,1.84.73,3.82,1.18,5.73,1.58,6.75-.51,12.3-5.7,14.7-1.26-1.71-.26-3.53-.13-5.24.3-3.95-.52-7.59-2.21-11.13-1.23-2.56-2.69-4.14-5.83-2.77-1.01.44-2.29.32-3.45.38-5.19.28-6.93,3.2-4.32,7.88,1.28,2.29,3.29,4.16,4.93,6.25,3.75,4.76,4.07,8.97.38,14.49-1.45-5.96-5.9-9.09-8.98-13.29-2.02-2.76-3.12-6.17-2.35-9.46,1.09-4.65,1.72-9.07,1.37-13.98-.36-4.96-1.66-9.24-3.84-13.47-.53-1.03-1.68-1.99-1.7-3-.18-8-4.89-14.56-6.72-22.01-.39-1.58-.67-3.47-.17-4.93,1.92-5.49-.89-7.72-5.57-8.94-1.61-.42-3.18-1.05-4.82-1.32-6.67-1.07-13.03-2.73-17.66-8.94-4.8,6.54-11.71,8.4-18.68,10.24-2.4.64-4.72,1.62-7,2.62-2.22.97-3.21,2.49-2.53,5.18,1.47,5.84.14,11.24-3.45,16.04-1.48,1.97-2.46,3.91-1.54,6.44.27.74.28,1.68.11,2.46-1.36,6.12-4.84,11.31-8.06,17.25-4.61,1.82-8.63,1.56-13.26.02,5.62,4.22,9.64,4.1,13.4.09M148.7,293.24c2.96-4.56-.84-6.43-3.7-9.62-.05,4.47,1.59,7.4,3.86,10.87,1.65,3.69,5.03,4.27,7.9,2.84,3.61-1.8,3.72-5.59,3.07-9.34-4.68.77-6.42,6.34-11.13,5.26M244.15,114.72c-17.55-12.55-36.91-18.64-58.39-14.4-45.42,8.97-57.77,44.22-53.25,79.65.98.77,2.02-1.6,3.41.79-3.2,10.25-.36,19.41,7.8,27.43,7.47,7.35,12.12,16.21,10.66,27.63,5.44-6.24,11.83-10.58,19.8-11.94,3.25-.56,4.94-1.65,5.32-5.22.39-3.61,2.01-6.92,6.07-8.58.91,2.29-.77,3.73-1.1,5.42-.41,2.09-.36,3.7,2.14,4.12,4.1.69,7.29,3.1,10.56,5.42,2.95,2.1,6.52,2.91,9.18.22,3.18-3.21,6.52-5.96,10.43-7.28.38-1.92-.34-2.88-.88-3.9-.6-1.14-1.78-2.34-.49-3.58,1.42-1.36,2.81-.27,4.02.58,2.89,2.01,3.79,4.91,3.54,8.3-.24,3.16-2.43,4.65-5,5.59-2.36.86-4.59,1.7-6.5,3.51-6.61,6.27-12.75,6.44-20.12,1.32-5.17-3.59-10.62-6.95-16.9-1.76-1.12.93-2.65,1.37-4.02,1.98-14.97,6.74-20.66,21.04-14.55,37.03.47-.61.95-1.06,1.23-1.62,5.83-11.53,15.43-17.42,28.02-19.18,4.79-.67,9.4-2.17,12.96-5.89,1.33-1.39,3.05-2.25,4.86-.68,5.09,4.42,11.43,4.94,17.69,5.97,7.51,1.24,13.82,4.35,17.58,11.65,1.74,3.37,3.32,7.13,6.94,9.58,2.94-4.76,2.5-9.6,1.49-14.29-2.07-9.58-7.37-16.93-15.92-21.98-2.82-1.67-6.43-2.61-8.13-6.71,9.99-3.28,16.02,3.76,23.72,8.56.48-13.39,7.99-22.12,16.72-30.16,2.05-1.88,2.46-4.63,3.14-7.22,1.45-5.55.6-11.29,1.44-16.87,3.82-25.2-3.31-46.38-23.48-63.49M280.36,259.58c-1.61-5.35-4.97-9.73-7.97-14.32-2.09-3.2-4.09-6.46-5.94-9.8-.67-1.21-1.44-2.85.35-3.98,1.38-.86,2.58-.16,3.62.73,1.68,1.44,3.3,2.95,4.94,4.42-2.46-4.67-4.96-9.14-6.78-13.94-1.88-4.94-2.28-10.2-2.69-15.66-11.72,8.78-17.41,25.04-14,38.24,1.23,4.76,1.5,9.69,5.37,13.49,1.12,1.1,1.2,3.39,1.48,5.18.23,1.51.48,2.95,1.46,4.16,5.49,6.77,9.63,14.19,10.7,23.49,5.85-8.5,5.76-15.67.12-23.31-.86-1.17-2.24-2.44-1.01-3.95,1.19-1.47,3.01-1.23,4.62-.65,2.62.94,4,3.27,5.68,6.03,1.13-3.56,1.09-6.46.02-10.14M141.78,265.16c3.77-6.81,6.54-14,8.29-21.59.26-1.13,1.37-2.34-.53-3.49-2.64,8.35-7.29,15.49-10.99,23.09-6.89,14.16-5.82,28.12,1.39,42.62.48-1.7,1.11-2.72.95-3.59-2.1-11.28,1.96-22.48.39-33.75-.11-.8.16-1.65.49-3.3M121.42,207.84c.21.77.41,1.55.95,3.53.52-1.2.69-1.66.91-2.09,4.47-8.49,3.94-18.08,5.82-27.13.44-2.14-6.79-7.11-9.37-6.81-3.14.36-5.25,4.19-4.31,8.15,1.88,7.9,5.01,15.5,6,24.35M272.69,192.12c-.08,5.42,1.67,10.13,5.42,14.63,1.31-3.78,2.11-7.21,3.64-10.27,3.09-6.17,2.72-12.45,1.55-18.91-.67-3.71-2.73-4.24-5.72-2.75-2.83,1.4-4.79,3.45-4.74,6.94.05,3.14-.1,6.29-.15,10.37M253.28,269.32c-.21-2.46.56-5.19-1.71-7.38-2.83,3.26-3.16,7.68-6.41,10.22-4.76-1.98-7.92-5.81-11.91-9.08,1.49,9.82,8.05,14.67,15.77,18.83,2.64-3.73,4.19-7.46,4.26-12.59M152.64,282.91c.6.93.64,2.28,2.45,2.81,6.43-5.96,11.42-12.67,10.29-22.97-4.36,5.71-8.37,10.95-12.38,16.19-.64-.12-1.28-.23-1.91-.35,3.78-6.35-1.07-9.77-3.39-14.07-1.34,6.73,1.95,12.17,4.94,18.39M128.54,222.23c2.34-5.54,1.76-11.34,1.57-17.14-.31,7.74-3.6,14.37-7.5,20.8-5.77,9.5-7.35,13.5-8.12,20.36,4.33-8.11,10.26-14.98,14.05-24.02M254.26,285.17c-.22-.92.2-2.03-.89-2.75-2.4,1.54-2.73,4.72-4.75,6.48-3.56-.38-5.93-3.14-9.28-3.8.14,2.09,1.34,3.51,2.48,4.81,2.44,2.8,4.67,6.96,9.12,5.44,4.27-1.46,3.14-5.94,3.32-10.19M263.3,288.69c-.84-2.08-1.68-4.15-2.51-6.23-.03,3.55-3.35,6.94-1.78,9.59,1.83,3.08,1.35,6,1.7,9.03.33,2.85-2.72,6.56,2.21,8.54,2.04-6.82,2.62-13.45.38-20.93M270.82,212.57c1.75,8.26,9.12,20.1,14.24,22.72-1.27-11-11.62-16.84-14.52-27.14-1.01,1.68.13,2.64.28,4.42M244.69,303.95c1.42,3.81,4.46,3.73,7.59,2.98,2.4-.58,3.56-2.1,2.49-4.94-3.23.86-6.32,2.02-10.08,1.96Z"/>
  <path d="M228.86,285.65c-2.55,9.9-6.82,19.01-3.5,29.33.82,2.54-.93,6.1-2.9,8.29-3.96,4.4-3.82,9.43-3.7,14.78.12,5.71-.64,11.26,2.22,16.82,2.78,5.4-.62,10.61-3.08,16.3,12.13-3.04,24.25-3.35,35.08-8.82,21.31-10.77,41.74-22.92,60.15-38.3,10.65-8.9,18.41-20.11,26.28-31.27,3.27-4.63,6.35-9.38,9.58-14.03,1-1.44,1.78-3.24,4.41-3.58-.91,6.68-4.46,11.93-7.32,17.42-14.34,27.52-36.7,46.98-62.93,62.58-17.03,10.13-33.6,21.16-53.43,25.41-3.92.84-7.86,1.34-11.81,1.91-3.1.44-5.75.83-5.96-3.7-4.01,2.46-6.86,5.57-10.66,7.36-2.7,1.27-4.6,1.51-5.82-1.85-1.42-3.92-4.58-6.46-7.76-8.93-7.73-5.98-9.27-12.29-4.13-20.33,2.41-3.76-.23-6.99.11-10.53.48-4.96.47-10.41-3.37-15.08-3.46-4.2-4.63-9.58-3.16-15.11.83-3.11,0-5.72-1.33-8.56-5.24-11.17-2.75-24.02,5.87-30.4.31,3.13-1.45,5.53-2.09,8.16-1.81,7.37-1.03,14.19,3.53,20.42,4.25,5.81,9.43,10.77,14.29,16.02,1.44,1.56,2.81,1.56,4.25.09,7.96-8.09,15.83-16.26,20.36-26.94,2.09-4.93,1.13-9.79-.46-14.63-.78-2.37-1.62-4.73-2.18-7.15-.34-1.45-.34-3.15,1.28-3.97,1.91-.97,3.25.4,4.24,1.68,3.68,4.77,4.22,10.37,3.94,16.6M212.89,369.57c3.57-6.71,3.42-11.4-.71-16.08-7.72,4.3-15.85,5.08-24.12,1.01-2.78,5.26-1.83,9.62,1.97,12.61,4.59,3.61,9.29,6.87,10.73,13.64,4.95-3.48,8.9-6.37,12.12-11.19M189.2,340.25c-.36,7.44,1.79,9.86,9.14,10.13,3.38.12,6.58-.84,9.7-2,5.13-1.91,5.95-3.87,4.26-9.54q-13.44,3.19-23.1,1.41M213.03,314.86c-3.32,3.68-6.64,7.36-10,11.09,2.81,3.35,6.72,5.21,9.14,4,5.76-2.88,8.55-13.49,4.59-19.58-1.15,1.41-2.2,2.7-3.73,4.49M182.5,317.61c3.68,11.19,11.77,17.63,19.58,15.36-5.69-5.18-11.27-10.33-16.98-15.32-.5-.44-1.37-2.91-2.6-.04Z"/>
  <path d="M82.61,331.76c-12.8-14.46-26.37-27.87-35.55-44.74-8.51-15.64-11.55-32.84-13.98-50.18-4.46-31.81-.23-62.68,10.53-92.76,1.73-4.84,3.86-9.59,7.51-13.42.65-.68,1.18-1.69,2.86-1.08-13.03,32.94-16.2,66.96-12.16,102.09,4.21,36.63,25.35,64.14,47.46,91.1,23.05,28.1,56.04,39.62,89.09,50.97-18.43.58-35.03-5.87-51.63-12.04-16.99-6.31-31.53-16.43-44.12-29.94Z"/>
  <path d="M351,151.37c-7.55-16.59-16.17-32.15-26.05-47.03-11.89-17.88-28.05-31.08-46.22-41.94-9.27-5.54-18.41-11.42-28.65-15.16-.79-.29-1.55-.64-1.58-2.01,2.06-1.36,4.05.18,5.87.69,23.58,6.59,43.47,19.7,62.18,35.02,14.44,11.82,24.32,27.3,34.6,42.4,9.92,14.57,13.19,31.43,14.6,48.69.45,5.47,1.72,10.8,2.23,16.28,1.44,15.49-1.61,30.47-4.51,45.47-1.87,9.64-4.76,19.04-8.57,28.12-.62,1.47-.85,3.27-3.08,4.03-.4-3.47.69-6.58,1.57-9.61,7.64-26.03,8.91-52.25,3.46-78.89-1.76-8.61-2.14-17.49-5.85-26.05Z"/>
  <path d="M152.75,40.92c12.82-4.4,25.28-8.47,38.66-8.89,11.39-.36,22.59.88,33.74,2.97,1.45.27,2.89.78,3.73,1.9.24,1.09-.38,1.54-.98,1.63-8.04,1.26-16,3.67-24.16,3.53-34.38-.61-64.94,11.05-93.73,28.58-15.17,9.24-29.5,19.42-39.39,34.71-1.42,2.2-3.11,4.69-6.96,5.77,1.36-5.18,3.61-9.14,6.01-13.02,8.45-13.68,20.76-23.32,33.91-31.97,15.36-10.1,31.6-18.53,49.17-25.2Z"/>
  <path d="M214.3,286.31c-3.81,9.75-10.34,16.71-18.35,22.98-1.86-3.8,1.7-5.29,1.9-7.79-14.11-17.8-15.96-27.66-5.89-36.74-2.92,12.79,2.63,22.36,11.16,31.42,4.04-3.67,6.37-8.37,7.6-13.45,1.17-4.86,1.49-9.92,2.93-14.87,3.45,5.88,2.69,11.95.65,18.44Z"/>
  <path d="M186.82,255.57c11.01-1.18,21.55-.73,32.38.12-.94,4.37-4.38,5.94-7.95,6.15-7.29.44-14.62.25-21.93.14-1.41-.02-3.14-.51-4.15-1.43-2.27-2.06-3.13-4.26,1.64-4.98Z"/>
  <path d="M186.84,167.44c4.8.69,5.39,3.83,4.63,7.4-.89,4.22-5.21,6.84-9.57,5.97-3.48-.69-6.58-2.47-9.43-4.41-7.7-5.24-15.35-5.73-23.26-.64-.76.49-1.62,1.31-2.68.47,2.77-6.81,16.63-12.29,24.5-8.76,2.72,1.22,5.33,2.69,7.97,4.08,2.97,1.56,6.38,4.32,5.78-2.49-.08-.87.88-1.32,2.07-1.62Z"/>
  <path d="M248.81,188.56c-3.55,1.22-5.52-1.46-8.01-2.48-6.35,7.92-10.59,7.95-15.01-.03-1.67,1.24-3.33,2.47-5.92,4.4.31-6.21,3.26-9.46,7.33-11.81,5.31-3.07,10.76-2.41,15.27,1.52,2.65,2.31,4.46,5.89,8.75,5.27-.01,1.83-1.08,2.37-2.41,3.12Z"/>
  <path d="M158.23,185.18c-2.42.93-4,2.95-6.51,3.1,1.26-6.45,8.7-11.02,17.67-10.94,6.17.06,10.43,4.53,11.9,12.63-3.29,1.19-4.31-2.51-6.74-3.15-1.56.28-1.6,1.95-2.5,2.86-3.84,3.91-9.75,2.5-11.39-2.84-.38-1.23.08-2.97-2.43-1.66Z"/>
  <path d="M248.68,173.52c-9.73-4.79-18.53-4.33-26.52,2.96-.49.44-1.04.84-1.61,1.16-2.18,1.24-4.79,2.89-6.64.31-1.7-2.38.76-4.26,2.36-5.85,9.08-9.02,24.7-9.82,34.02-1.75,1.55,1.34,3.33,2.64,3.38,5.12-2.15.42-3.16-1.28-4.98-1.95Z"/>
  <path d="M207.82,192.48c-1.08-5.09-4.4-9.67-.89-14.68,7.96,9.82,9.23,25.67,1.85,34.71-.06-7.25,1.71-13.64-.96-20.03Z"/>
</svg>