<svg version="1.1" id="Layer_1" xmlns="http://www.w3.org/2000/svg" xmlns:xlink="http://www.w3.org/1999/xlink" x="0px" y="0px"
	 width="100%" viewBox="0 0 1024 544" enable-background="new 0 0 1024 544" xml:space="preserve">
<path fill="#000000" opacity="1.000000" stroke="none" 
	d="
M317.656494,302.138519 
	C311.875397,270.522919 317.991852,240.982178 331.045898,212.798325 
	C340.702393,191.949738 352.321716,172.083832 366.327820,153.762375 
	C370.273682,148.600708 374.837860,143.916382 380.604553,140.660538 
	C383.449005,139.054565 384.166168,135.913666 385.847748,133.498230 
	C394.496338,121.075424 407.506927,114.033455 419.425293,105.554100 
	C441.054535,90.165909 465.930817,83.830109 491.331268,78.610985 
	C504.401031,75.925484 517.400635,73.159790 530.870056,74.516754 
	C558.187439,77.268837 584.140015,84.547707 608.138611,98.090141 
	C618.291321,103.819267 628.273071,109.858574 638.231689,115.922440 
	C651.503967,124.003975 663.061829,133.913498 670.658569,147.776199 
	C677.759155,160.733597 686.955322,172.313934 694.776428,184.793213 
	C697.513184,189.159958 700.122009,193.611359 701.908447,198.499603 
	C703.584656,203.086243 704.263672,207.741913 704.406433,212.651718 
	C704.773132,225.263168 707.251160,237.771652 706.358826,250.461853 
	C706.303467,251.248596 706.378479,252.460587 706.866028,252.805115 
	C711.812073,256.300385 710.720276,261.653198 711.099243,266.461121 
	C712.807312,288.128510 712.347412,309.770233 707.591980,331.013641 
	C701.549011,358.008942 687.951538,381.457977 671.394836,403.260742 
	C665.259766,411.339874 658.903015,419.326630 651.938171,426.684113 
	C637.191467,442.262024 620.070862,454.350800 599.205994,460.635284 
	C586.103333,464.581757 574.434265,472.045197 561.394043,476.300110 
	C532.438171,485.748108 503.146576,487.424469 473.230438,481.873993 
	C438.190552,475.372864 409.046448,457.697723 382.513702,434.930786 
	C376.323395,429.619049 370.778656,423.542419 364.488983,418.361481 
	C350.050629,406.468353 341.676270,390.830048 335.771332,373.548401 
	C327.853241,350.374969 320.753693,326.991089 317.656494,302.138519 
M501.602203,91.264748 
	C495.433533,92.617157 489.280243,94.044891 483.093536,95.309006 
	C455.598511,100.926979 429.257782,109.495689 406.745331,126.928352 
	C394.480194,136.425934 380.966034,144.579590 372.882324,158.790939 
	C363.580048,175.144531 353.103455,190.883362 345.753601,208.252121 
	C337.414215,227.959442 330.510406,248.346405 331.545319,270.042267 
	C333.354370,307.966980 342.413147,344.323273 358.167145,378.921967 
	C361.281891,385.762512 365.112457,392.351379 370.655701,397.483032 
	C384.083984,409.914215 396.960876,422.924438 411.839386,433.791901 
	C457.407959,467.075775 507.177490,477.049561 561.683350,461.701935 
	C580.585449,456.379486 597.737183,446.972382 614.786682,437.570465 
	C626.118103,431.321808 637.772461,424.964691 647.040100,416.008972 
	C664.040344,399.580750 675.497437,379.250793 683.767822,357.140106 
	C692.185730,334.635376 694.341003,311.228638 694.010620,287.433472 
	C693.929871,281.618500 693.885559,275.661133 696.011230,270.180664 
	C699.729980,260.593231 700.990356,250.908966 698.678955,240.838806 
	C696.351501,230.698914 696.142151,219.883362 689.784668,210.995331 
	C678.143433,194.720596 667.784607,177.644653 657.579529,160.455826 
	C652.189819,151.377899 645.902954,142.701706 637.081726,136.830566 
	C610.011841,118.813599 582.524048,101.561729 550.232422,93.927040 
	C534.400208,90.183815 518.681824,86.997780 501.602203,91.264748 
z"/>
<path fill="#000000" opacity="1.000000" stroke="none" 
	d="
M473.992798,377.979248 
	C474.182434,383.859711 478.032257,388.803955 478.269196,394.669525 
	C478.529053,401.103546 474.878998,405.634796 470.713959,409.847717 
	C469.348541,411.228821 468.773529,413.364349 466.393524,414.274017 
	C465.104065,410.833130 467.239441,408.621002 468.901611,406.360565 
	C471.331238,403.056396 473.233185,399.817810 472.002747,395.344177 
	C470.224518,388.878754 467.314331,386.685852 460.651825,387.497009 
	C459.538116,387.632568 458.806152,388.218781 458.276581,389.098236 
	C454.891632,394.719879 452.613556,400.348297 456.288361,406.905853 
	C458.429199,410.726013 460.872650,414.223724 463.791931,417.449860 
	C464.832275,418.599579 466.823181,419.867218 465.151703,421.598145 
	C463.261627,423.555450 461.840698,421.476318 460.594818,420.300537 
	C458.415802,418.244080 456.325989,416.084625 454.302307,413.873596 
	C448.210052,407.217407 446.883820,399.779602 451.472687,391.868958 
	C453.597046,388.206757 453.631714,385.318604 450.994202,381.929352 
	C449.184174,379.603394 448.048798,376.718994 446.798553,373.998383 
	C444.770233,369.584442 443.463196,365.177582 439.589722,361.366211 
	C433.245697,355.123993 437.761810,338.736847 446.210968,335.145294 
	C446.354156,340.301605 442.720795,344.604370 443.470703,350.415192 
	C445.120941,342.483521 449.202789,336.477875 453.224365,330.503296 
	C457.518585,324.123688 460.852692,317.266541 464.166748,310.375946 
	C464.810120,309.038239 464.446228,307.814240 464.106110,306.508667 
	C462.116333,298.871124 457.909241,292.618469 451.973846,286.641968 
	C450.584564,290.821136 449.441986,294.545868 448.110535,298.201843 
	C445.521210,305.311859 441.173431,311.467468 437.167206,317.790192 
	C432.159882,325.692871 428.662659,333.998016 429.286652,343.603882 
	C429.336273,344.368042 429.030090,345.155304 428.695038,347.002991 
	C425.299530,341.942566 425.559662,337.252625 425.926025,332.563385 
	C426.027771,331.260742 426.776794,330.029602 426.294189,328.652466 
	C422.568420,318.020721 426.507690,308.616943 431.477783,299.644348 
	C433.798615,295.454468 434.386749,291.766907 432.474182,287.438568 
	C429.094788,279.790802 427.164612,271.690521 425.303894,263.569946 
	C422.569946,251.638580 429.053802,242.924011 441.527466,242.565735 
	C441.196350,219.140686 449.185760,199.100311 467.971832,184.538391 
	C484.365692,171.830826 503.302551,166.021698 524.118042,167.817459 
	C543.214294,169.464905 559.840759,176.668915 572.956787,191.125580 
	C585.986633,205.487274 590.725586,222.725800 590.443298,241.476334 
	C591.110840,241.770935 591.447815,242.068420 591.686890,242.003784 
	C601.185730,239.435867 604.628662,242.253769 605.476074,252.129410 
	C606.086731,259.245483 604.719421,265.630585 601.385376,271.813599 
	C598.799377,276.609283 598.979736,282.137421 597.705383,287.287628 
	C597.268066,289.054810 598.690125,290.422729 599.570740,291.778900 
	C603.615662,298.008331 604.776367,304.643280 602.723206,311.813995 
	C602.541565,312.448303 602.192871,313.256989 602.422241,313.753448 
	C605.830444,321.130432 602.780823,328.419006 602.213684,335.735931 
	C602.123718,336.896606 602.297852,338.143219 601.932861,339.206970 
	C598.283325,349.843140 595.260071,360.768219 588.558105,370.072083 
	C584.911926,375.133911 583.459961,381.231720 580.573853,386.658386 
	C579.593994,388.500732 581.301453,390.473480 581.749573,392.388855 
	C583.328125,399.135498 581.240845,404.689789 576.051392,407.087860 
	C574.793457,405.376160 575.796265,403.556183 575.924377,401.845764 
	C576.220154,397.898712 575.407898,394.256226 573.711121,390.720612 
	C572.483459,388.162415 571.016418,386.581055 567.884827,387.951294 
	C566.871704,388.394592 565.594238,388.271667 564.433777,388.334045 
	C559.241943,388.613281 557.508057,391.532684 560.117859,396.210632 
	C561.394775,398.499390 563.404785,400.374939 565.050964,402.462769 
	C568.804688,407.223541 569.119202,411.431702 565.431946,416.957184 
	C563.979797,411.000275 559.532898,407.867767 556.455933,403.670197 
	C554.434509,400.912659 553.334167,397.498016 554.103577,394.205963 
	C555.190369,389.555847 555.828491,385.140381 555.473389,380.227631 
	C555.114929,375.267700 553.814880,370.986298 551.628479,366.757355 
	C551.094788,365.725189 549.947083,364.765533 549.923889,363.753204 
	C549.740417,355.757782 545.030334,349.192352 543.203552,341.742310 
	C542.816528,340.163605 542.528870,338.268524 543.037964,336.814117 
	C544.959473,331.325562 542.144653,329.097076 537.465820,327.873749 
	C535.855225,327.452637 534.283813,326.819000 532.650513,326.558014 
	C525.977234,325.491821 519.616516,323.830658 514.993774,317.617737 
	C510.191315,324.154510 503.279053,326.015198 496.315704,327.861298 
	C493.917633,328.497070 491.596710,329.485413 489.316101,330.485107 
	C487.099640,331.456726 486.103882,332.975555 486.782532,335.667419 
	C488.254791,341.507233 486.925995,346.911285 483.329468,351.705811 
	C481.851074,353.676727 480.873566,355.616852 481.792755,358.150177 
	C482.061859,358.891876 482.076141,359.830719 481.902771,360.611633 
	C480.544586,366.729004 477.064758,371.922333 473.843567,377.865723 
	C469.230835,379.689423 465.211304,379.428284 460.588562,377.887848 
	C466.212646,382.104431 470.232697,381.992767 473.992798,377.979248 
M464.167999,367.395203 
	C467.127319,362.837128 463.329498,360.968048 460.470917,357.776276 
	C460.417938,362.249603 462.063873,365.177887 464.326965,368.642303 
	C465.973969,372.335968 469.356537,372.909027 472.225647,371.480560 
	C475.836792,369.682617 475.949554,365.888702 475.295959,362.138397 
	C470.613007,362.908844 468.875214,368.475159 464.167999,367.395203 
M559.618042,188.880173 
	C542.063782,176.334030 522.705322,170.235229 501.229675,174.475174 
	C455.806488,183.443146 443.458923,218.699387 447.978241,254.123657 
	C448.956940,254.895462 450.000458,252.525879 451.389496,254.909775 
	C448.192505,265.159973 451.031281,274.315094 459.185150,282.335236 
	C466.658630,289.686096 471.300262,298.544281 469.848419,309.966797 
	C475.290985,303.726318 481.675812,299.391449 489.647491,298.021881 
	C492.901306,297.462830 494.582550,296.372375 494.971588,292.799530 
	C495.364899,289.187836 496.982330,285.881836 501.038605,284.223602 
	C501.948883,286.517975 500.271484,287.955261 499.942291,289.641357 
	C499.534790,291.728577 499.583252,293.344269 502.086578,293.763885 
	C506.191040,294.451935 509.373535,296.861511 512.645813,299.186096 
	C515.600159,301.284790 519.164734,302.099426 521.829712,299.410980 
	C525.010742,296.201874 528.353638,293.446655 532.260254,292.133026 
	C532.635803,290.216492 531.920898,289.253418 531.382507,288.229675 
	C530.783936,287.091461 529.602966,285.885681 530.894958,284.650726 
	C532.318176,283.290283 533.700562,284.385315 534.915222,285.230621 
	C537.808228,287.243896 538.708374,290.139862 538.453064,293.529999 
	C538.215149,296.689819 536.018066,298.182831 533.448486,299.122253 
	C531.087585,299.985382 528.859558,300.822388 526.953369,302.631531 
	C520.348267,308.900238 514.207275,309.068542 506.833069,303.953064 
	C501.660004,300.364502 496.208832,297.000946 489.930573,302.193237 
	C488.809479,303.120392 487.276154,303.562927 485.910126,304.178101 
	C470.940308,310.919586 465.247559,325.215057 471.364624,341.206635 
	C471.834656,340.597046 472.314331,340.141785 472.595215,339.586060 
	C478.424713,328.053680 488.020294,322.162323 500.614838,320.401062 
	C505.403015,319.731506 510.019745,318.229492 513.573303,314.515930 
	C514.907654,313.121460 516.621643,312.264618 518.430786,313.834076 
	C523.524719,318.253052 529.862549,318.773773 536.120483,319.807556 
	C543.628357,321.047821 549.939209,324.160034 553.700806,331.456299 
	C555.438110,334.826111 557.018066,338.589783 560.640503,341.032837 
	C563.584839,336.272766 563.142395,331.431549 562.127258,326.742340 
	C560.052795,317.160034 554.752991,309.815277 546.204590,304.766205 
	C543.380371,303.098053 539.771301,302.155518 538.075195,298.053528 
	C548.064636,294.773651 554.094849,301.817963 561.791565,306.616180 
	C562.276428,293.227661 569.776611,284.497894 578.509827,276.460602 
	C580.556519,274.577057 580.973389,271.831573 581.650391,269.241486 
	C583.101929,263.688416 582.246765,257.952515 583.093445,252.368881 
	C586.914307,227.171204 579.781250,205.986160 559.618042,188.880173 
M595.837402,333.744720 
	C594.225159,328.390289 590.867554,324.015381 587.870789,319.426788 
	C585.783325,316.230499 583.778015,312.970825 581.935425,309.629486 
	C581.266052,308.415710 580.492676,306.774719 582.288269,305.653412 
	C583.665405,304.793396 584.867981,305.492645 585.911194,306.384064 
	C587.591492,307.819824 589.208435,309.329620 590.852173,310.808136 
	C588.393982,306.139923 585.896240,301.668884 584.070190,296.867798 
	C582.190918,291.927124 581.794495,286.668488 581.382751,281.206848 
	C569.666260,289.982666 563.968506,306.248596 567.387390,319.449005 
	C568.618896,324.204041 568.891602,329.143646 572.754822,332.939636 
	C573.874939,334.040253 573.957275,336.330597 574.229980,338.119049 
	C574.460754,339.632690 574.712463,341.066895 575.693481,342.277405 
	C581.181274,349.048645 585.324219,356.469910 586.396057,365.765015 
	C592.250366,357.269653 592.151306,350.094971 586.519165,342.459137 
	C585.659729,341.293976 584.283630,340.021454 585.513855,338.510040 
	C586.706665,337.044647 588.520813,337.278809 590.137390,337.858124 
	C592.761658,338.798553 594.135437,341.125366 595.813965,343.884552 
	C596.943909,340.325928 596.908508,337.428955 595.837402,333.744720 
M457.252106,339.321594 
	C461.019440,332.511780 463.788605,325.319550 465.544495,317.735992 
	C465.805908,316.606964 466.913361,315.400482 465.012848,314.242493 
	C462.374115,322.588135 457.723267,329.729340 454.025055,337.335785 
	C447.139404,351.498199 448.205658,365.452850 455.417175,379.958466 
	C455.893433,378.255859 456.530457,377.237061 456.368317,376.367279 
	C454.264893,365.085358 458.326477,353.883850 456.759552,342.617615 
	C456.648621,341.820068 456.920044,340.969330 457.252106,339.321594 
M436.895599,281.995605 
	C437.102692,282.768402 437.309784,283.541199 437.841278,285.524475 
	C438.364319,284.324432 438.530945,283.865112 438.756256,283.436707 
	C443.223999,274.941925 442.699341,265.359741 444.572937,256.303497 
	C445.016693,254.158508 437.781128,249.195770 435.205994,249.492477 
	C432.067078,249.854156 429.954742,253.687149 430.897919,257.645203 
	C432.781281,265.548553 435.912506,273.147034 436.895599,281.995605 
M588.165771,266.276306 
	C588.084290,271.697540 589.835999,276.408508 593.587585,280.902802 
	C594.895081,277.125854 595.693176,273.693207 597.226501,270.628387 
	C600.314026,264.457031 599.950867,258.176239 598.779480,251.718811 
	C598.107178,248.012787 596.046936,247.482727 593.054810,248.966232 
	C590.221741,250.370880 588.262695,252.414078 588.319519,255.903000 
	C588.370789,259.047058 588.218994,262.194427 588.165771,266.276306 
M568.750793,343.479004 
	C568.536804,341.017609 569.314148,338.285583 567.036133,336.100006 
	C564.205383,339.359314 563.880493,343.776611 560.625000,346.323303 
	C555.868713,344.338806 552.702454,340.513763 548.713745,337.244415 
	C550.207458,347.066101 556.766663,351.916351 564.488281,356.073364 
	C567.125610,352.342804 568.678833,348.608459 568.750793,343.479004 
M468.116302,357.065948 
	C468.713104,357.998688 468.759644,359.347198 470.569977,359.871490 
	C477.000000,353.909546 481.986298,347.205750 480.860687,336.900787 
	C476.498138,342.606018 472.487885,347.850494 468.477631,353.095001 
	C467.839569,352.977997 467.201477,352.861023 466.563385,352.744049 
	C470.343872,346.393250 465.492432,342.973328 463.176941,338.678375 
	C461.840820,345.403412 465.124939,350.850800 468.116302,357.065948 
M444.013123,296.394196 
	C446.354492,290.856384 445.769562,285.050476 445.584808,279.257294 
	C445.272552,286.996399 441.985931,293.625916 438.081421,300.052673 
	C432.307129,309.557159 430.734131,313.548615 429.963287,320.412781 
	C434.297638,312.306213 440.221924,305.434357 444.013123,296.394196 
M569.736023,359.325684 
	C569.518433,358.409271 569.936462,357.296448 568.845947,356.575134 
	C566.447876,358.119781 566.116760,361.293671 564.098450,363.057251 
	C560.536743,362.679169 558.169922,359.917480 554.816833,359.259827 
	C554.956909,361.350006 556.157776,362.767334 557.296875,364.074066 
	C559.738464,366.875092 561.969360,371.037964 566.412415,369.514862 
	C570.683228,368.050812 569.548340,363.574921 569.736023,359.325684 
M578.776855,362.851501 
	C577.939209,360.776459 577.101562,358.701416 576.263916,356.626343 
	C576.234253,360.174225 572.916321,363.565186 574.487610,366.218506 
	C576.313293,369.301331 575.832642,372.216461 576.188721,375.244934 
	C576.523621,378.093475 573.465271,381.802643 578.394165,383.785980 
	C580.434448,376.965027 581.010437,370.336853 578.776855,362.851501 
M586.293213,286.726013 
	C588.039978,294.982147 595.411987,306.826904 600.531921,309.444427 
	C599.265076,298.446228 588.908569,292.603729 586.009216,282.302460 
	C585.003174,283.986938 586.138977,284.941223 586.293213,286.726013 
M560.161255,378.114136 
	C561.583496,381.921997 564.618164,381.845795 567.752686,381.089203 
	C570.156616,380.508942 571.313354,378.991791 570.239502,376.152039 
	C567.008667,377.007263 563.917969,378.171021 560.161255,378.114136 
z"/>
<path fill="#000000" opacity="1.000000" stroke="none" 
	d="
M544.336548,359.807800 
	C541.787598,369.704590 537.517212,378.820862 540.839355,389.138977 
	C541.657837,391.681030 539.912109,395.234619 537.940613,397.424957 
	C533.976135,401.829590 534.120667,406.854309 534.237122,412.208496 
	C534.361389,417.920563 533.595642,423.469849 536.457397,429.025421 
	C539.237427,434.422272 535.836182,439.633942 533.377563,445.322144 
	C545.512024,442.278107 557.629700,441.971283 568.461365,436.498840 
	C589.775452,425.730347 610.200500,413.581055 628.614990,398.202179 
	C639.269043,389.304443 647.023438,378.095551 654.899414,366.936066 
	C658.165100,362.308899 661.249878,357.554352 664.480042,352.901520 
	C665.479614,351.461731 666.259216,349.662079 668.885559,349.321564 
	C667.971497,355.999512 664.429504,361.255493 661.568665,366.745270 
	C647.228394,394.263580 624.871887,413.722321 598.636414,429.323639 
	C581.605042,439.451538 565.038574,450.479431 545.208862,454.731903 
	C541.291687,455.571899 537.349731,456.075134 533.398071,456.640686 
	C530.301453,457.083862 527.650269,457.469543 527.436401,452.941467 
	C523.429321,455.404449 520.572998,458.515320 516.773621,460.305786 
	C514.074646,461.577728 512.174377,461.813751 510.958557,458.456482 
	C509.538635,454.535767 506.383453,451.993408 503.194458,449.526062 
	C495.462097,443.543579 493.923096,437.235687 499.068207,429.198303 
	C501.477142,425.435303 498.835785,422.206909 499.174988,418.669861 
	C499.650391,413.712799 499.648346,408.256592 495.800232,403.590515 
	C492.336975,399.391083 491.165955,394.006683 492.638428,388.477814 
	C493.467987,385.362915 492.647827,382.762146 491.312042,379.916779 
	C486.068878,368.748413 488.562042,355.899689 497.177887,349.513794 
	C497.483337,352.644073 495.728271,355.046570 495.083832,357.677246 
	C493.278076,365.048248 494.055603,371.864777 498.613831,378.097900 
	C502.860199,383.904602 508.044342,388.867462 512.906311,394.122040 
	C514.346375,395.678497 515.713318,395.685150 517.159973,394.215698 
	C525.124634,386.125702 532.991516,377.956390 537.524353,367.277802 
	C539.617798,362.345947 538.658264,357.486023 537.061707,352.649750 
	C536.279968,350.281799 535.446594,347.919128 534.876709,345.497528 
	C534.535461,344.047363 534.540039,342.348083 536.161011,341.524231 
	C538.072021,340.553070 539.412598,341.925201 540.399353,343.205322 
	C544.076172,347.975128 544.617615,353.577148 544.336548,359.807800 
M528.361450,443.725800 
	C531.931458,437.016449 531.783142,432.329987 527.656189,427.650177 
	C519.933167,431.954407 511.806946,432.731995 503.535645,428.657410 
	C500.757263,433.919983 501.706696,438.277618 505.508331,441.270508 
	C510.095184,444.881500 514.796265,448.144714 516.240173,454.912567 
	C521.190674,451.434174 525.136597,448.541046 528.361450,443.725800 
M504.676483,414.414185 
	C504.314331,421.851349 506.465454,424.271088 513.820618,424.539551 
	C517.196716,424.662781 520.404785,423.697845 523.516541,422.536499 
	C528.642944,420.623291 529.461914,418.666809 527.777588,413.001190 
	C514.335144,416.191650 514.335144,416.191650 504.676483,414.414185 
M528.497620,389.022827 
	C525.178833,392.702576 521.860046,396.382355 518.499451,400.108429 
	C521.308899,403.460663 525.222839,405.318848 527.636169,404.113281 
	C533.392883,401.237457 536.189819,390.627228 532.227417,384.532257 
	C531.079773,385.943909 530.029297,387.235992 528.497620,389.022827 
M497.969147,391.774109 
	C501.649658,402.968536 509.738953,409.406372 517.551147,407.136383 
	C511.858063,401.957031 506.281982,396.809540 500.570251,391.817169 
	C500.066345,391.376740 499.201508,388.905304 497.969147,391.774109 
z"/>
<path fill="#000000" opacity="1.000000" stroke="none" 
	d="
M398.079742,405.919556 
	C385.277222,391.461243 371.709473,378.048340 362.527710,361.178345 
	C354.014984,345.537445 350.972778,328.336060 348.544281,310.994049 
	C344.089203,279.179993 348.314240,248.317673 359.074768,218.236221 
	C360.807617,213.391983 362.939178,208.644226 366.581421,204.813293 
	C367.228882,204.132355 367.765594,203.120529 369.443512,203.735153 
	C356.410950,236.670654 353.242981,270.699066 357.280884,305.824066 
	C361.492249,342.458221 382.627197,369.967957 404.740845,396.924835 
	C427.790741,425.022949 460.776764,436.540680 493.833435,447.898651 
	C475.402069,448.477905 458.806458,442.024658 442.203735,435.859650 
	C425.215240,429.551392 410.676788,419.432678 398.079742,405.919556 
z"/>
<path fill="#000000" opacity="1.000000" stroke="none" 
	d="
M666.473877,225.531342 
	C658.922852,208.937714 650.306763,193.376831 640.421387,178.505188 
	C628.534912,160.623016 612.375732,147.426132 594.202087,136.567093 
	C584.935547,131.030228 575.794250,125.150063 565.554871,121.403526 
	C564.768066,121.115639 564.001465,120.762611 563.973755,119.391777 
	C566.035706,118.029015 568.020020,119.572212 569.847412,120.082687 
	C593.425049,126.669044 613.316101,139.777863 632.028503,155.100754 
	C646.465515,166.922714 656.347961,182.397446 666.632141,197.497330 
	C676.555542,212.067413 679.823059,228.929398 681.231750,246.184143 
	C681.678467,251.656799 682.949036,256.985474 683.457520,262.464447 
	C684.895203,277.956696 681.852295,292.938751 678.942932,307.933929 
	C677.072205,317.575806 674.183044,326.971680 670.369263,336.050323 
	C669.752747,337.517883 669.523865,339.319275 667.289612,340.080688 
	C666.886963,336.609131 667.976196,333.499207 668.864136,330.474487 
	C676.504578,304.448883 677.769653,278.229218 672.325989,251.582275 
	C670.567749,242.975800 670.189331,234.087418 666.473877,225.531342 
z"/>
<path fill="#000000" opacity="1.000000" stroke="none" 
	d="
M468.224976,115.084869 
	C481.044922,110.680260 493.502167,106.611588 506.882996,106.193527 
	C518.277771,105.837524 529.474182,107.073433 540.620300,109.158546 
	C542.068970,109.429550 543.508667,109.937096 544.353088,111.060585 
	C544.588623,112.152237 543.974548,112.595924 543.369995,112.690346 
	C535.325012,113.946877 527.368347,116.363159 519.213013,116.219048 
	C484.832092,115.611519 454.276764,127.272453 425.483673,144.800491 
	C410.313416,154.035522 395.987030,164.220474 386.094666,179.512619 
	C384.673615,181.709396 382.988220,184.201279 379.135010,185.279846 
	C380.492523,180.099258 382.741486,176.140518 385.141998,172.256409 
	C393.593781,158.581177 405.899139,148.935867 419.052490,140.288025 
	C434.408325,130.192139 450.655121,121.755836 468.224976,115.084869 
z"/>
<path fill="#000000" opacity="1.000000" stroke="none" 
	d="
M529.775146,360.470520 
	C525.967163,370.216888 519.436462,377.180267 511.421814,383.454712 
	C509.560455,379.659637 513.122620,378.165314 513.325317,375.664368 
	C499.211121,357.867645 497.366516,348.004395 507.434906,338.926605 
	C504.510101,351.720490 510.065735,361.287567 518.599548,370.350647 
	C522.643799,366.678680 524.973328,361.981873 526.195251,356.905243 
	C527.364075,352.049133 527.685242,346.989044 529.130005,342.033508 
	C532.583740,347.916901 531.821167,353.979828 529.775146,360.470520 
z"/>
<path fill="#000000" opacity="1.000000" stroke="none" 
	d="
M502.296753,329.725769 
	C513.302368,328.547333 523.849731,328.994751 534.676270,329.849792 
	C533.735229,334.215149 530.297485,335.786652 526.727966,335.999878 
	C519.440369,336.435120 512.110168,336.249634 504.800354,336.136749 
	C503.389343,336.114960 501.659515,335.622009 500.654419,334.709900 
	C498.381439,332.647064 497.525574,330.450012 502.296753,329.725769 
z"/>
<path fill="#000000" opacity="1.000000" stroke="none" 
	d="
M502.316681,241.603317 
	C507.114563,242.297974 507.702545,245.434525 506.949341,249.006668 
	C506.059052,253.229019 501.737244,255.845230 497.377747,254.976852 
	C493.899139,254.283951 490.797668,252.507523 487.946198,250.567230 
	C480.242035,245.324875 472.599091,244.833557 464.681824,249.925873 
	C463.926361,250.411758 463.063049,251.239441 462.000092,250.392426 
	C464.774261,243.585739 478.630035,238.098328 486.495117,241.637314 
	C489.213593,242.860519 491.824890,244.325302 494.465790,245.716522 
	C497.435364,247.280914 500.842987,250.036469 500.249908,243.225021 
	C500.174255,242.356079 501.131256,241.903625 502.316681,241.603317 
z"/>
<path fill="#000000" opacity="1.000000" stroke="none" 
	d="
M564.284790,262.720398 
	C560.733093,263.942230 558.762268,261.258911 556.269897,260.242279 
	C549.923706,268.158997 545.683289,268.191376 541.263855,260.212646 
	C539.591187,261.455414 537.938416,262.683411 535.343628,264.611267 
	C535.656311,258.406189 538.608215,255.155151 542.674194,252.803650 
	C547.980164,249.734940 553.430420,250.389191 557.943909,254.323624 
	C560.592773,256.632599 562.404175,260.211151 566.694519,259.597443 
	C566.684021,261.432129 565.614319,261.972290 564.284790,262.720398 
z"/>
<path fill="#000000" opacity="1.000000" stroke="none" 
	d="
M473.701355,259.337830 
	C471.277435,260.266785 469.699646,262.289429 467.191650,262.433105 
	C468.453674,255.983704 475.888855,251.412476 484.863922,251.494919 
	C491.033661,251.551590 495.298157,256.021698 496.761597,264.128143 
	C493.468292,265.315460 492.447937,261.613342 490.017914,260.981964 
	C488.458405,261.257812 488.416199,262.928223 487.522125,263.837952 
	C483.678711,267.748840 477.775970,266.336792 476.133057,261.000916 
	C475.755127,259.773499 476.208679,258.028229 473.701355,259.337830 
z"/>
<path fill="#000000" opacity="1.000000" stroke="none" 
	d="
M564.153809,247.680511 
	C554.420776,242.893555 545.620300,243.349258 537.629639,250.642380 
	C537.143188,251.086380 536.591675,251.479263 536.018433,251.804352 
	C533.837036,253.041489 531.224060,254.694366 529.377380,252.110977 
	C527.676086,249.730865 530.137512,247.850433 531.740845,246.256805 
	C540.819580,237.232849 556.438782,236.435410 565.757874,244.507477 
	C567.307068,245.849380 569.083679,247.148605 569.135437,249.627670 
	C566.983582,250.052505 565.971863,248.350067 564.153809,247.680511 
z"/>
<path fill="#000000" opacity="1.000000" stroke="none" 
	d="
M523.287720,266.642334 
	C522.204651,261.552643 518.891174,256.968658 522.397400,251.959930 
	C530.356628,261.784363 531.622986,277.632019 524.251648,286.670410 
	C524.196350,279.423615 525.960999,273.029114 523.287720,266.642334 
z"/>
</svg>